<?xml version="1.0" standalone="no"?>
<!DOCTYPE svg PUBLIC "-//W3C//DTD SVG 1.1//EN" "http://www.w3.org/Graphics/SVG/1.1/DTD/svg11.dtd" >
<svg>
<metadata>
Created by FontForge 20090622 at Wed Mar 13 10:00:25 2019
 By deploy user
Copyright \(c\) 2016 by Deepak Singh Dogra. All rights reserved.
</metadata>
<defs>
<font id="Renogare-Regular" horiz-adv-x="713" >
  <font-face 
    font-family="Renogare"
    font-weight="400"
    font-stretch="normal"
    units-per-em="1000"
    panose-1="0 0 0 0 0 0 0 0 0 0"
    ascent="800"
    descent="-200"
    x-height="548"
    cap-height="731"
    bbox="-50 -307 1381 1017"
    underline-thickness="50"
    underline-position="-50"
    unicode-range="U+0020-U+2265"
  />
<missing-glyph horiz-adv-x="520" 
 />
    <glyph glyph-name=".notdef" horiz-adv-x="520" 
 />
    <glyph glyph-name=".null" horiz-adv-x="0" 
 />
    <glyph glyph-name="nonmarkingreturn" horiz-adv-x="333" 
 />
    <glyph glyph-name="space" unicode=" " horiz-adv-x="300" 
 />
    <glyph glyph-name="exclam" unicode="!" horiz-adv-x="305" 
d="M209 208h-117l-26 522h169zM233 72q0 -33 -25 -56.5t-59 -23.5t-58 23.5t-24 56.5q0 32 24 56t58 24t59 -24t25 -56z" />
    <glyph glyph-name="quotedbl" unicode="&#x22;" horiz-adv-x="462" 
d="M178 503h-120l-17 229h153zM392 503h-118l-18 229h154z" />
    <glyph glyph-name="numbersign" unicode="#" horiz-adv-x="890" 
d="M711 179h-137l-73 -179h-157l74 179h-115l-72 -179h-157l73 179h-135l57 142h135l39 96h-134l57 142h135l70 173h156l-69 -173h113l72 173h156l-71 -173h138l-57 -142h-138l-39 -96h137zM514 417h-114l-38 -96h112z" />
    <glyph glyph-name="dollar" unicode="$" horiz-adv-x="707" 
d="M259 821h158v-79q57 -8 104 -29t108 -63l-89 -121q-112 75 -205 75q-26 0 -54 -7t-50.5 -24t-22.5 -41q0 -19 21.5 -35t56 -27t64 -17.5t58.5 -10.5q40 -7 64.5 -13t64.5 -23t63.5 -38.5t41.5 -60.5t18 -89q0 -101 -65 -158.5t-178 -66.5v-80h-158v88q-43 7 -85 25
t-63.5 31.5l-70.5 46.5l86 124q141 -95 242 -95q61 0 97.5 26.5t36.5 59.5q0 18 -12 31.5t-39 23.5t-49 15t-62 13q-40 7 -67 12.5t-73.5 22.5t-75.5 39t-51.5 61t-22.5 89q0 96 58.5 147.5t150.5 66.5v81z" />
    <glyph glyph-name="percent" unicode="%" horiz-adv-x="998" 
d="M229 321q-86 0 -142 58.5t-56 148.5q0 91 56 149.5t142 58.5t142 -58.5t56 -149.5q0 -89 -56.5 -148t-141.5 -59zM199 0l443 717h136l-442 -717h-137zM229 616q-18 0 -30.5 -10.5t-17 -27.5t-6 -28.5t-1.5 -21.5q0 -8 1.5 -19t6 -28.5t17 -29t30.5 -11.5q27 0 41.5 28
t14.5 60t-14 60t-42 28zM753 -15q-86 0 -142.5 59t-56.5 150q0 90 56.5 148.5t142.5 58.5t142 -58.5t56 -148.5t-57 -149.5t-141 -59.5zM753 282q-18 0 -30.5 -11t-17.5 -28t-6.5 -28t-1.5 -21q0 -9 1.5 -20t6.5 -28.5t17.5 -29t30.5 -11.5q26 0 41 28t15 61q0 31 -14 59.5
t-42 28.5z" />
    <glyph glyph-name="ampersand" unicode="&#x26;" horiz-adv-x="712" 
d="M565 -17l-96 93q-65 -54 -105 -70t-102 -18q-90 -4 -157.5 47.5t-77.5 133.5q-12 108 89 191q7 6 26.5 19.5l25.5 17.5q-67 82 -56 177q14 87 88 136q51 33 118 33q28 0 52 -6q43 -11 77.5 -39.5t53.5 -67.5q19 -37 19 -77q0 -46 -22 -87q-27 -50 -109 -98l81 -80
q20 27 36 55t22.5 41.5t6.5 15.5l137 -66q-43 -78 -99 -149q88 -88 111 -113zM258 559q-6 -46 36 -93q79 45 79 100q1 21 -16.5 35t-39.5 14q-21 0 -38 -14t-21 -42zM251 294q-20 -11 -41 -27q-36 -32 -30 -81q2 -25 23.5 -43t52.5 -19q59 -2 117 49z" />
    <glyph glyph-name="quotesingle" unicode="'" horiz-adv-x="239" 
d="M176 503h-119l-19 229h155z" />
    <glyph glyph-name="parenleft" unicode="(" horiz-adv-x="411" 
d="M318 617q-119 -121 -119 -320q0 -198 119 -319q29 -27 63 -50l-92 -117q-53 38 -85 72v-1q-164 164 -164 415q0 250 164 416v-1q37 38 85 71l92 -115q-48 -35 -63 -50v-1z" />
    <glyph glyph-name="parenright" unicode=")" horiz-adv-x="373" 
d="M62 618q-14 15 -62 50l92 115q48 -33 85 -71v1q163 -165 163 -416q0 -252 -163 -415v1q-32 -34 -85 -72l-92 117q36 24 62 50q120 122 120 319q0 198 -120 320v1z" />
    <glyph glyph-name="asterisk" unicode="*" horiz-adv-x="452" 
d="M223 457l-65 -88l-96 60l73 89l-111 37l34 99l109 -37v112h111v-112l108 37l34 -99l-110 -37l68 -89l-91 -60z" />
    <glyph glyph-name="plus" unicode="+" horiz-adv-x="590" 
d="M552 228h-187v-183h-148v183h-186v136h186v183h148v-183h187v-136z" />
    <glyph glyph-name="comma" unicode="," horiz-adv-x="218" 
d="M184 86q5 -20 5 -37q0 -56 -38 -104t-103 -62l-23 50q57 17 70 59q-32 1 -52.5 23t-22.5 53q-1 33 22 57.5t57 26.5q31 1 54.5 -17t30.5 -49z" />
    <glyph glyph-name="hyphen" unicode="-" horiz-adv-x="425" 
d="M366 220h-318v136h318v-136z" />
    <glyph glyph-name="period" unicode="." horiz-adv-x="214" 
d="M189 72q0 -33 -24.5 -56.5t-58.5 -23.5t-58 23.5t-24 56.5q0 32 24 56t58 24t58.5 -24t24.5 -56z" />
    <glyph glyph-name="slash" unicode="/" horiz-adv-x="564" 
d="M-34 -135l459 966h149l-460 -966h-148z" />
    <glyph glyph-name="zero" unicode="0" horiz-adv-x="777" 
d="M383 -15q-156 0 -253 117q-88 107 -88 263q0 167 95 272.5t246 105.5q148 0 244 -107t96 -271q0 -155 -91 -263q-46 -55 -112 -86t-137 -31zM383 599q-70 0 -125 -60.5t-55 -173.5q0 -59 18.5 -111t60.5 -88.5t101 -36.5q70 0 124.5 63.5t54.5 172.5q0 113 -51 175
q-50 59 -128 59z" />
    <glyph glyph-name="one" unicode="1" horiz-adv-x="462" 
d="M382 732v-732h-159v469l-100 -92l-109 113l265 242h103z" />
    <glyph glyph-name="two" unicode="2" horiz-adv-x="668" 
d="M599 137v-137h-530v147l114 93l153 123q60 47 78 79t18 70q0 49 -32 71t-76 22q-82 0 -117 -115l-154 38q9 32 28.5 65.5t51 69t82 58t109.5 22.5q128 0 197.5 -69.5t69.5 -161.5q0 -73 -43 -135.5t-118 -125.5l-145 -114h314z" />
    <glyph glyph-name="three" unicode="3" horiz-adv-x="624" 
d="M571 532q0 -68 -29.5 -104.5t-78.5 -58.5q108 -46 108 -168q0 -74 -46 -129q-72 -86 -221 -86q-51 0 -94.5 15.5t-72 37.5t-50.5 52.5t-33.5 55.5t-18.5 50l142 43l5.5 -16.5t13.5 -28.5t23.5 -35t35.5 -26t49 -12q52 0 80 22.5t28 56.5q0 65 -43 86t-144 20v126
q102 4 144.5 22t42.5 77q0 34 -28 56t-80 22q-35 0 -61 -14.5t-39.5 -37.5t-18.5 -37t-8 -28l-142 44q7 25 18.5 49.5t33.5 55t50.5 52.5t72 37.5t94.5 15.5q135 0 201 -64.5t66 -150.5z" />
    <glyph glyph-name="four" unicode="4" horiz-adv-x="699" 
d="M656 295v-137h-91v-158h-158v158h-357v128l396 446h119v-437h91zM407 472l-151 -177h151v177z" />
    <glyph glyph-name="five" unicode="5" horiz-adv-x="641" 
d="M321 494q125 0 195.5 -68.5t70.5 -189.5q0 -111 -78.5 -180.5t-199.5 -69.5q-172 0 -278 126l98 117q0 -1 7 -11t23 -25.5t36 -30.5t50.5 -25.5t63.5 -11.5q47 -1 82 28.5t37 82.5q3 60 -27 96t-86 38q-38 1 -69 -10t-46 -23t-33 -30l-118 62l71 363h420v-138h-291
l-23 -127q46 27 95 27z" />
    <glyph glyph-name="six" unicode="6" horiz-adv-x="675" 
d="M352 502q120 5 192.5 -65t72.5 -192q0 -113 -70 -181q-80 -78 -219 -78q-131 0 -207 81t-76 197q0 73 30 136q29 62 233 332h196l-175 -233q18 3 23 3zM203 244q0 -52 37.5 -88t91.5 -36q55 0 92.5 36t37.5 88q0 53 -37.5 89t-92.5 36q-54 0 -91.5 -36.5t-37.5 -88.5z
" />
    <glyph glyph-name="seven" unicode="7" horiz-adv-x="616" 
d="M578 732v-144l-344 -588h-182l356 594h-379v138h549z" />
    <glyph glyph-name="eight" unicode="8" horiz-adv-x="646" 
d="M571 533q0 -47 -23 -87t-60 -59q46 -19 78.5 -66t32.5 -100q0 -114 -79.5 -174.5t-202.5 -60.5t-202.5 60.5t-79.5 174.5q0 55 34 102.5t81 64.5q-35 21 -61 61.5t-26 83.5q0 90 74 149.5t180 59.5t180 -59.5t74 -149.5zM223 518q0 -37 26.5 -57t67.5 -20q40 0 67 20
t27 57q0 86 -94 86q-42 0 -68 -21t-26 -65zM317 124q55 0 89 23.5t34 73.5q0 45 -35.5 72t-87.5 27t-87.5 -26.5t-35.5 -72.5q0 -49 34.5 -73t88.5 -24z" />
    <glyph glyph-name="nine" unicode="9" horiz-adv-x="683" 
d="M320 230q-116 -5 -190.5 72.5t-74.5 184.5q0 112 70 182q79 77 218 77q95 0 168.5 -47.5t98.5 -125.5v1q19 -51 19 -106q0 -64 -32 -136q-34 -68 -233 -332h-196l174 233q-10 -3 -22 -3zM211 489q0 -52 37.5 -88t91.5 -36q55 0 92 35.5t37 88.5q0 52 -37 88t-92 36
q-54 0 -91.5 -36t-37.5 -88z" />
    <glyph glyph-name="colon" unicode=":" horiz-adv-x="214" 
d="M188 348q0 -32 -24.5 -55.5t-58.5 -23.5t-58 23.5t-24 55.5q0 33 24 56.5t58 23.5t58.5 -23.5t24.5 -56.5zM188 72q0 -33 -24.5 -56.5t-58.5 -23.5t-58 23.5t-24 56.5t24 56.5t58 23.5t58.5 -24t24.5 -56z" />
    <glyph glyph-name="semicolon" unicode=";" horiz-adv-x="222" 
d="M189 348q0 -32 -24.5 -55.5t-58.5 -23.5t-58 23.5t-24 55.5q0 33 24 56.5t58 23.5t58.5 -23.5t24.5 -56.5zM184 86q5 -20 5 -37q0 -56 -38 -104t-103 -62l-23 50q57 17 70 59q-32 1 -52.5 23t-22.5 53q-1 33 22 57.5t57 26.5q31 1 54.5 -17t30.5 -49z" />
    <glyph glyph-name="less" unicode="&#x3c;" horiz-adv-x="575" 
d="M518 573v-156l-295 -123l295 -122v-156l-469 211v135z" />
    <glyph glyph-name="equal" unicode="=" horiz-adv-x="584" 
d="M526 335h-479v136h479v-136zM526 99h-479v136h479v-136z" />
    <glyph glyph-name="greater" unicode="&#x3e;" horiz-adv-x="575" 
d="M518 362v-135l-469 -211v156l295 122l-295 123v156z" />
    <glyph glyph-name="question" unicode="?" horiz-adv-x="601" 
d="M489 675q58 -61 58 -138q0 -44 -13 -78.5t-39.5 -58.5t-45.5 -36.5t-51 -28.5q-43 -23 -59.5 -50t-16.5 -78h-155q0 79 40.5 146t113.5 105q40 20 53.5 34.5t13.5 42.5q0 8 -3 16.5t-12 21t-33 20t-59 7.5q-57 0 -93 -32t-50 -75l-145 46q7 20 16.5 41.5t33.5 53.5
t53.5 56t78.5 42t106 18q137 0 208 -75zM330 72q0 32 -25 56t-59 24t-58 -24t-24 -56q0 -33 24 -56.5t58 -23.5t59 23.5t25 56.5z" />
    <glyph glyph-name="at" unicode="@" horiz-adv-x="881" 
d="M722 570q111 -91 111 -256q0 -170 -84 -230q-37 -27 -85 -27q-26 0 -42 5q-38 8 -70 44q-51 -46 -133 -46q-95 0 -149.5 56.5t-54.5 154.5q0 94 56.5 151.5t148.5 57.5q50 0 88 -20v16h118v-251q0 -52 27 -61q61 -10 61 150q0 120 -68 173q-73 59 -214 59
q-132 0 -202.5 -79.5t-70.5 -187.5q0 -41 6.5 -77.5t24.5 -75t46.5 -66t77 -45.5t111.5 -18q55 0 98.5 11t58.5 19.5t18 12.5l75 -65q-77 -79 -248 -79q-184 0 -285 101t-101 282q0 152 100 260q110 115 291 115q186 0 290 -84zM508 251v46q-1 16 -4 27.5t-11.5 25t-27 21
t-45.5 7.5q-44 0 -62.5 -33t-18.5 -74q0 -57 24 -81.5t56 -24.5q86 0 89 86z" />
    <glyph glyph-name="A" unicode="A" horiz-adv-x="805" 
d="M-3 0l401 754l401 -754h-173l-58 112h-341l-56 -112h-174zM305 247h187l-94 191z" />
    <glyph glyph-name="B" unicode="B" horiz-adv-x="703" 
d="M619 528q0 -49 -25.5 -89t-66.5 -57q50 -17 86 -65t36 -105q0 -59 -21 -101.5t-58 -66t-80.5 -34t-96.5 -10.5h-316v731h304q238 0 238 -203zM236 441h148q39 0 57.5 24t18.5 57q0 29 -22 50.5t-53 21.5h-149v-153zM393 137q46 0 72 24t26 59t-26 59t-75 24h-154v-166
h157z" />
    <glyph glyph-name="C" unicode="C" horiz-adv-x="809" 
d="M778 188q-53 -92 -145.5 -147t-201.5 -55q-163 0 -278.5 111t-115.5 268q0 156 115.5 267t278.5 111q108 0 201 -54.5t146 -145.5l-147 -57q-35 50 -88.5 82t-111.5 32q-97 0 -166 -70t-69 -165t69 -165.5t166 -70.5q58 0 111.5 32.5t88.5 83.5z" />
    <glyph glyph-name="D" unicode="D" horiz-adv-x="817" 
d="M78 0v731h302q163 0 267 -92q114 -99 114 -273q0 -172 -114 -275q-103 -91 -267 -91h-302zM236 137h144q221 0 221 228t-221 228h-144v-456z" />
    <glyph glyph-name="E" unicode="E" horiz-adv-x="700" 
d="M235 594v-163h350v-138h-350v-156h396v-137h-554v731h554v-137h-396z" />
    <glyph glyph-name="F" unicode="F" horiz-adv-x="668" 
d="M236 594v-161h349v-137h-349v-296h-159v731h554v-137h-395z" />
    <glyph glyph-name="G" unicode="G" horiz-adv-x="861" 
d="M813 407q2 -40 2 -59q0 -12 -2 -42q-12 -139 -122 -229.5t-260 -90.5q-163 0 -278.5 111t-115.5 268q0 156 115.5 267.5t278.5 111.5q101 0 188.5 -47.5t142.5 -128.5l-136 -79q-36 49 -87 80t-108 31q-97 0 -167 -70.5t-70 -164.5q0 -95 70 -165.5t167 -70.5
q71 0 133.5 40.5t79.5 98.5h-273v139h442z" />
    <glyph glyph-name="H" unicode="H" horiz-adv-x="822" 
d="M735 731v-731h-157v284h-343v-284h-157v731h157v-310h343v310h157z" />
    <glyph glyph-name="I" unicode="I" horiz-adv-x="354" 
d="M254 0h-158v731h158v-731z" />
    <glyph glyph-name="J" unicode="J" horiz-adv-x="633" 
d="M552 730v-468q0 -128 -77.5 -202t-206.5 -74q-88 0 -155 42t-102 118l144 61q37 -81 113 -81q39 0 65.5 13.5t38.5 36t16.5 43t4.5 43.5v468h159z" />
    <glyph glyph-name="K" unicode="K" horiz-adv-x="751" 
d="M236 237v-237h-158v731h158v-305l285 305h196l-301 -310l314 -421h-194l-229 311z" />
    <glyph glyph-name="L" unicode="L" horiz-adv-x="638" 
d="M619 137v-137h-542v731h159v-594h383z" />
    <glyph glyph-name="M" unicode="M" horiz-adv-x="934" 
d="M844 754v-754h-159v349l-224 -260l-224 260v-349h-159v754l383 -432z" />
    <glyph glyph-name="N" unicode="N" horiz-adv-x="828" 
d="M235 416v-416h-157v754l504 -446v422h158v-753z" />
    <glyph glyph-name="O" unicode="O" horiz-adv-x="880" 
d="M434 -14q-163 0 -278 111.5t-115 268.5q0 156 115 267.5t278 111.5t279 -111.5t116 -267.5q0 -157 -115.5 -268.5t-279.5 -111.5zM434 601q-97 0 -166.5 -70t-69.5 -165t69.5 -166t166.5 -71t166.5 71t69.5 166t-69.5 165t-166.5 70z" />
    <glyph glyph-name="P" unicode="P" horiz-adv-x="686" 
d="M375 731q134 0 214.5 -75t80.5 -187q0 -113 -77 -184.5t-219 -71.5h-138v-213h-158v731h297zM397 350q56 0 85 35t29 84q0 50 -35 87.5t-95 37.5h-145v-244h161z" />
    <glyph glyph-name="Q" unicode="Q" horiz-adv-x="880" 
d="M434 -14q-163 0 -278 111.5t-115 268.5q0 156 115 267.5t278 111.5t279 -111.5t116 -267.5q0 -136 -90 -242l65 -67l-112 -108l-77 79q-86 -42 -181 -42zM456 193l112 108l62 -65q40 61 40 130q0 95 -69.5 165t-166.5 70t-166.5 -70t-69.5 -165t69.5 -166t166.5 -71
q36 0 72 11z" />
    <glyph glyph-name="R" unicode="R" horiz-adv-x="729" 
d="M235 0h-157v731h325q118 0 191 -70.5t73 -183.5q0 -79 -40 -141t-109 -91l189 -245h-189l-175 228h-108v-228zM235 365h168q41 0 74 29.5t33 82.5q0 18 -4 35t-14.5 37t-33 32.5t-55.5 12.5h-168v-229z" />
    <glyph glyph-name="S" unicode="S" horiz-adv-x="707" 
d="M129 221q43 -36 114 -64.5t130 -28.5q62 0 98.5 24t36.5 57q0 17 -9.5 30t-22.5 21.5t-37.5 16t-43 11l-50.5 9.5q-40 7 -67 12.5t-73.5 22.5t-75.5 39t-51.5 61t-22.5 89q0 62 26.5 107.5t71 69t92 34t100.5 10.5q90 0 156.5 -24.5t132.5 -73.5l-88 -120
q-105 75 -207 75q-28 0 -54 -5.5t-49 -22.5t-23 -44q0 -17 10.5 -30t32 -21t40 -13t47.5 -11l15 -3q12 -2 37.5 -7l40.5 -8t40.5 -9.5t41.5 -13t38 -16.5t36 -21.5t29.5 -28t24 -35.5t14.5 -43.5t6 -53.5q0 -111 -78.5 -169t-212.5 -58q-196 0 -330 114z" />
    <glyph glyph-name="T" unicode="T" horiz-adv-x="647" 
d="M628 594h-212v-594h-159v594h-213v137h584v-137z" />
    <glyph glyph-name="U" unicode="U" horiz-adv-x="820" 
d="M406 -13q-149 0 -238.5 84.5t-89.5 224.5v434h158v-434q0 -49 17 -85t44.5 -54t54.5 -26t54 -8q26 0 53 8t54 26t44 54t17 85v434h158v-434q0 -140 -89 -224.5t-237 -84.5z" />
    <glyph glyph-name="V" unicode="V" horiz-adv-x="750" 
d="M745 730l-371 -748l-369 748h174l195 -404l196 404h175z" />
    <glyph glyph-name="W" unicode="W" horiz-adv-x="1031" 
d="M1014 730l-295 -757l-209 434l-211 -434l-292 757h170l141 -379l192 398l192 -398l144 379h168z" />
    <glyph glyph-name="X" unicode="X" horiz-adv-x="784" 
d="M295 362l-289 368h199l189 -252l189 252h197l-287 -368l282 -362h-198l-183 243l-183 -243h-199z" />
    <glyph glyph-name="Y" unicode="Y" horiz-adv-x="734" 
d="M734 730l-290 -453v-277h-158v277l-288 453h185l182 -295l184 295h185z" />
    <glyph glyph-name="Z" unicode="Z" horiz-adv-x="730" 
d="M288 137h396v-137h-685l430 593h-380v137h670z" />
    <glyph glyph-name="bracketleft" unicode="[" horiz-adv-x="392" 
d="M369 -223h-291v1049h291v-138h-133v-773h133v-138z" />
    <glyph glyph-name="backslash" unicode="\" horiz-adv-x="513" 
d="M-49 831h154l372 -966h-154z" />
    <glyph glyph-name="bracketright" unicode="]" horiz-adv-x="349" 
d="M5 -233v138h133v773h-133v138h291v-1049h-291z" />
    <glyph glyph-name="asciicircum" unicode="^" horiz-adv-x="629" 
d="M414 365l-107 223l-109 -223h-162l191 372h159l191 -372h-163z" />
    <glyph glyph-name="underscore" unicode="_" horiz-adv-x="695" 
d="M629 -120h-579v136h579v-136z" />
    <glyph glyph-name="grave" unicode="`" horiz-adv-x="295" 
d="M277 588h-118l-150 108l136 56z" />
    <glyph glyph-name="a" unicode="a" 
d="M486 0v55q-19 -26 -65.5 -46.5t-101.5 -20.5q-127 0 -201.5 82t-74.5 205t74.5 205t201.5 82q57 0 100.5 -19.5t66.5 -49.5v57h148v-550h-148zM492 275q0 69 -41 112.5t-110 43.5q-70 0 -110.5 -43.5t-40.5 -112.5q0 -67 41.5 -111t109.5 -44q70 0 110.5 41.5t40.5 113.5
z" />
    <glyph glyph-name="b" unicode="b" 
d="M217 0h-148v756h148v-263q23 30 66.5 49.5t100.5 19.5q127 0 201.5 -82t74.5 -205t-74.5 -205t-201.5 -82q-55 0 -101.5 20.5t-65.5 46.5v-55zM211 275q0 -72 40.5 -113.5t110.5 -41.5q68 0 109.5 44t41.5 111q0 69 -40.5 112.5t-110.5 43.5q-69 0 -110 -43.5t-41 -112.5
z" />
    <glyph glyph-name="c" unicode="c" horiz-adv-x="650" 
d="M343 -14q-123 0 -211.5 84.5t-88.5 202.5t88 202t211 84q87 0 157.5 -41.5t112.5 -118.5l-135 -53q-49 82 -135 82q-65 0 -107.5 -44t-42.5 -111t43 -111t108 -44q90 0 139 80l127 -50q-79 -162 -266 -162z" />
    <glyph glyph-name="d" unicode="d" 
d="M486 0v55q-19 -26 -65.5 -46.5t-101.5 -20.5q-127 0 -201.5 82t-74.5 205t74.5 205t201.5 82q57 0 100.5 -19.5t66.5 -49.5v263h148v-756h-148zM492 275q0 69 -41 112.5t-110 43.5q-70 0 -110.5 -43.5t-40.5 -112.5q0 -67 41.5 -111t109.5 -44q70 0 110.5 41.5
t40.5 113.5z" />
    <glyph glyph-name="e" unicode="e" horiz-adv-x="681" 
d="M342 -14q-35 0 -72.5 8t-79 28.5t-73.5 51.5t-53 82.5t-21 116.5t21.5 116.5t54 82.5t74 51.5t78.5 28t71 7.5q113 0 198 -73.5t89 -199.5l-3 -69h-434q6 -31 26 -53t45.5 -31t44 -12.5t34.5 -3.5q84 0 141 64l116 -67q-94 -128 -257 -128zM341 428q-62 0 -101 -30.5
t-44 -74.5h275q-5 41 -41 73t-89 32z" />
    <glyph glyph-name="f" unicode="f" horiz-adv-x="390" 
d="M244 413v-413h-150v413h-62v128h62q4 107 61 163t158 56q30 0 66 -9l-8 -121q-27 8 -56 5q-31 -3 -48 -20t-20 -33.5t-3 -40.5h99v-128h-99z" />
    <glyph glyph-name="g" unicode="g" 
d="M634 49q0 -119 -73.5 -187.5t-204.5 -68.5q-157 0 -263 83l73 106q81 -64 187 -61q133 3 133 128v9q-60 -49 -154 -49q-131 0 -210 79t-79 196q0 118 79 197t210 79q94 0 154 -49v39h148v-501zM341 135q64 0 107.5 43t43.5 106q0 64 -43.5 106.5t-107.5 42.5
q-68 0 -109.5 -42.5t-41.5 -106.5q0 -66 40.5 -107.5t110.5 -41.5z" />
    <glyph glyph-name="h" unicode="h" horiz-adv-x="660" 
d="M366 560q217 0 217 -235v-325h-152v325q0 111 -107 111q-41 0 -74 -32.5t-31 -112.5v-291h-149v757h149v-256q27 27 68 43t79 16z" />
    <glyph glyph-name="i" unicode="i" horiz-adv-x="305" 
d="M233 689q0 -34 -24 -57.5t-58 -23.5q-35 0 -59.5 23.5t-24.5 57.5q0 33 24.5 56.5t59.5 23.5q34 0 58 -23.5t24 -56.5zM76 0v549h150v-549h-150z" />
    <glyph glyph-name="j" unicode="j" horiz-adv-x="319" 
d="M246 689q0 -34 -24.5 -57.5t-58.5 -23.5t-59 24t-25 57t25 56.5t59 23.5t58.5 -23.5t24.5 -56.5zM239 549v-544q0 -114 -55 -161.5t-163 -47.5q-26 0 -66 10l8 127q28 -10 56 -10q25 0 40.5 7t21 21.5t7 25t1.5 28.5v544h150z" />
    <glyph glyph-name="k" unicode="k" horiz-adv-x="619" 
d="M70 756h150v-440l187 231h183l-221 -256l230 -291h-181l-144 180l-54 -62v-118h-150v756z" />
    <glyph glyph-name="l" unicode="l" horiz-adv-x="294" 
d="M70 0v756h150v-756h-150z" />
    <glyph glyph-name="m" unicode="m" horiz-adv-x="1032" 
d="M718 560q115 0 171.5 -62t56.5 -173v-325h-151v325q0 111 -107 111q-40 0 -72 -30t-33 -100v-306h-151v325q0 111 -106 111q-43 0 -74.5 -32t-31.5 -113l-1 -291h-149v550h149v-50q29 26 70 43t75 17q116 0 177 -75q67 75 177 75z" />
    <glyph glyph-name="n" unicode="n" horiz-adv-x="658" 
d="M364 560q217 0 217 -235v-325h-153v325q0 111 -106 111q-41 0 -74 -32.5t-31 -112.5v-291h-149v550h149v-49q27 27 68 43t79 16z" />
    <glyph glyph-name="o" unicode="o" horiz-adv-x="694" 
d="M341 -13q-123 0 -210.5 84t-87.5 203q0 118 87.5 202t210.5 84t211.5 -84t88.5 -202q0 -119 -88.5 -203t-211.5 -84zM341 429q-63 0 -107 -45t-44 -110q0 -68 43 -112.5t108 -44.5q64 0 107.5 45t43.5 112q0 66 -43.5 110.5t-107.5 44.5z" />
    <glyph glyph-name="p" unicode="p" 
d="M217 550v-55q19 26 65.5 46.5t101.5 20.5q127 0 201.5 -82t74.5 -205t-74.5 -205t-201.5 -82q-57 0 -100.5 19.5t-66.5 49.5v-234h-148v727h148zM211 275q0 -69 41 -112.5t110 -43.5q70 0 110.5 43.5t40.5 112.5q0 67 -41.5 111t-109.5 44q-70 0 -110.5 -41.5
t-40.5 -113.5z" />
    <glyph glyph-name="q" unicode="q" 
d="M486 550h148v-727h-148v234q-23 -30 -66.5 -49.5t-100.5 -19.5q-127 0 -201.5 82t-74.5 205t74.5 205t201.5 82q55 0 101.5 -20.5t65.5 -46.5v55zM492 275q0 72 -40.5 113.5t-110.5 41.5q-68 0 -109.5 -44t-41.5 -111q0 -69 40.5 -112.5t110.5 -43.5q69 0 110 43.5
t41 112.5z" />
    <glyph glyph-name="r" unicode="r" horiz-adv-x="424" 
d="M404 414q-15 1 -34 -0.5t-47.5 -11t-51 -26t-39 -51.5t-16.5 -82v-243h-149v550h149v-73q37 49 90.5 66.5t97.5 16.5v-146z" />
    <glyph glyph-name="s" unicode="s" horiz-adv-x="572" 
d="M296 -13q-150 0 -258 86l78 104q87 -59 178 -59q34 0 56.5 14t22.5 35q0 10 -7.5 18t-22.5 13t-25.5 7.5t-29 5t-21.5 2.5q-25 4 -36.5 6.5t-39 9.5t-42.5 14t-37 21t-33.5 30t-20.5 39.5t-9 52.5q0 46 19 80t45 51t61 27.5t57.5 13t44.5 2.5q124 0 229 -79l-78 -102
q-87 51 -156 51q-25 0 -48.5 -11t-23.5 -30q0 -36 104 -49q101 -17 139 -37q80 -41 80 -137q0 -86 -59 -132.5t-167 -46.5z" />
    <glyph glyph-name="t" unicode="t" horiz-adv-x="410" 
d="M254 428v-232q0 -16 1.5 -26.5t7 -25t20.5 -22.5t39 -8q20 0 38 2v-126q-36 -4 -67 -4q-96 0 -141.5 28t-45.5 109v305h-67v131h67v147h148v-147h110v-131h-110z" />
    <glyph glyph-name="u" unicode="u" horiz-adv-x="658" 
d="M284 -12q-216 0 -216 235v325h151v-325q0 -110 107 -110q42 0 75 32.5t30 111.5v291h150v-548h-150v47q-57 -59 -147 -59z" />
    <glyph glyph-name="v" unicode="v" horiz-adv-x="597" 
d="M293 -24l-294 572h166l128 -269l128 269h167z" />
    <glyph glyph-name="w" unicode="w" horiz-adv-x="792" 
d="M239 -23l-234 571h159l92 -244l133 274l135 -275l95 245h158l-236 -571l-152 292z" />
    <glyph glyph-name="x" unicode="x" horiz-adv-x="626" 
d="M420 0l-112 163l-115 -163h-187l207 272l-210 276h186l119 -169l117 169h188l-213 -276l208 -272h-188z" />
    <glyph glyph-name="y" unicode="y" horiz-adv-x="643" 
d="M315 -206h-165l95 226l-236 528h173l139 -350l128 350h173z" />
    <glyph glyph-name="z" unicode="z" horiz-adv-x="566" 
d="M294 419h-258v129h523l-300 -418h269v-130h-533z" />
    <glyph glyph-name="braceleft" unicode="{" horiz-adv-x="428" 
d="M254 138q-4 -61 -1.5 -105.5t21.5 -73.5q16 -24 48.5 -37.5t57.5 -14.5l24 -1v-141q-21 0 -53 4t-93 28.5t-99 66.5q-28 33 -42.5 83t-16 78t-1.5 72v44.5t-3 34t-9.5 28t-18.5 16t-30 9.5v146q18 2 30 9.5t18.5 16t9.5 28t3 34v44.5q0 44 1.5 72t16 78t42.5 83
q38 42 99 66.5t93 28.5t53 4v-141q-11 0 -27.5 -1t-51.5 -14.5t-51 -37.5q-19 -29 -21.5 -73.5t1.5 -105.5q0 -62 -28.5 -104t-69.5 -60q41 -18 69.5 -59.5t28.5 -104.5z" />
    <glyph glyph-name="bar" unicode="|" horiz-adv-x="297" 
d="M206 -104h-119v937h119v-937z" />
    <glyph glyph-name="braceright" unicode="}" horiz-adv-x="428" 
d="M171 138q0 63 28.5 104.5t69.5 59.5q-41 18 -69.5 60t-28.5 104q4 61 1.5 105.5t-21.5 73.5q-16 24 -48.5 37.5t-56.5 14.5l-25 1v141q21 0 53 -4t93 -28.5t99 -66.5q28 -33 42.5 -83t16 -78t1.5 -72v-44.5t3 -34t9.5 -28t18.5 -16t30 -9.5v-146q-18 -2 -30 -9.5
t-18.5 -16t-9.5 -28t-3 -34v-44.5q0 -44 -1.5 -72t-16 -78t-42.5 -83q-38 -42 -99 -66.5t-93 -28.5t-53 -4v141q11 0 27.5 1t51.5 14.5t51 37.5q19 29 21.5 73.5t-1.5 105.5z" />
    <glyph glyph-name="asciitilde" unicode="~" horiz-adv-x="597" 
d="M379 319q-45 0 -101.5 32t-87.5 32q-33 0 -53 -50l-100 31q15 45 54 83.5t100 38.5q41 0 92.5 -32.5t84.5 -32.5q26 0 45.5 18.5t27.5 42.5l103 -32q-17 -48 -59 -89.5t-106 -41.5z" />
    <glyph glyph-name="exclamdown" unicode="&#xa1;" horiz-adv-x="305" 
d="M68 658q0 33 24.5 56.5t58.5 23.5t58.5 -23.5t24.5 -56.5q0 -32 -24.5 -55.5t-58.5 -23.5t-58.5 23.5t-24.5 55.5zM92 522h117l26 -522h-169z" />
    <glyph glyph-name="cent" unicode="&#xa2;" horiz-adv-x="644" 
d="M346 200q33 0 59.5 12.5t39 25.5t33.5 39l143 -55q-72 -119 -200 -151v-83h-158v86q-99 27 -164 108t-65 182t65 181.5t164 107.5v91h158v-88q131 -30 203 -155l-144 -56q-59 82 -134 82q-67 0 -113 -45.5t-46 -117.5q0 -71 46 -117.5t113 -46.5z" />
    <glyph glyph-name="sterling" unicode="&#xa3;" horiz-adv-x="640" 
d="M283 303q1 -12 1 -32q0 -98 -40 -136h348v-135h-543v130q27 3 55.5 37t28.5 76q0 43 -4 60h-78v123h59l-8 63q-10 112 65 183t194 71q58 0 106 -20t78 -53t48.5 -64t28.5 -64l-143 -45q-9 43 -45 77t-73 34q-51 0 -78.5 -30t-25.5 -76q2 -43 8 -76h217v-123h-199z" />
    <glyph glyph-name="yen" unicode="&#xa5;" horiz-adv-x="636" 
d="M427 398h135v-104h-169v-68h169v-103h-169v-123h-159v123h-159v103h159v68h-159v104h126l-202 334h183l132 -218l131 218h184z" />
    <glyph glyph-name="brokenbar" unicode="&#xa6;" horiz-adv-x="297" 
d="M87 833h119v-395h-119v395zM87 -104v394h119v-394h-119z" />
    <glyph glyph-name="section" unicode="&#xa7;" horiz-adv-x="551" 
d="M497 369q0 -73 -58 -105q26 -16 42.5 -50t16.5 -64q0 -81 -65 -122.5t-154 -41.5q-24 0 -48 3.5t-45.5 10.5t-39 13.5t-36.5 17l-29 16t-24.5 15t-16.5 10.5l65 93q100 -62 170 -67q45 -4 68.5 9.5t23.5 36.5q0 27 -24.5 38t-87.5 20q-33 5 -63.5 13.5t-67.5 26.5
t-59.5 50t-22.5 74q0 40 23.5 69t53.5 45q-36 15 -56.5 45.5t-20.5 65.5q0 38 17.5 67t42 44.5t56 25.5t53.5 12.5t39 2.5q114 0 226 -74l-75 -93q-73 56 -152 56q-76 0 -76 -41q0 -12 9.5 -21t30.5 -16t35.5 -10.5t42.5 -9.5l39 -9.5t43 -13t47 -21.5t37.5 -28.5
t29.5 -40.5t10 -52zM150 370q14 -37 68 -54.5t95 -17.5q26 0 47.5 15t23.5 40q3 37 -51.5 61.5t-118.5 26.5q-33 1 -55 -17t-9 -54z" />
    <glyph glyph-name="dieresis" unicode="&#xa8;" horiz-adv-x="431" 
d="M32 660q0 31 22.5 52.5t55.5 21.5t54.5 -21.5t21.5 -52.5q0 -32 -21.5 -52.5t-54.5 -20.5t-55.5 21t-22.5 52zM239 660q0 31 22 52.5t55 21.5q32 0 55 -21.5t23 -52.5t-22.5 -52t-55.5 -21q-34 0 -55.5 20.5t-21.5 52.5z" />
    <glyph glyph-name="copyright" unicode="&#xa9;" horiz-adv-x="859" 
d="M424 -12q-161 0 -275.5 110.5t-114.5 265.5t114.5 265t275.5 110q162 0 276.5 -110t114.5 -265t-114.5 -265.5t-276.5 -110.5zM424 656q-126 0 -214 -85t-88 -207t88 -207.5t214 -85.5q127 0 215 85.5t88 207.5t-88 207t-215 85zM602 271q-30 -47 -76.5 -75t-100.5 -28
q-83 0 -141.5 57t-58.5 138q0 80 58.5 136t141.5 56q118 0 181 -105l-74 -31q-43 58 -107 58q-49 0 -85 -33.5t-36 -80.5q0 -48 36 -81.5t85 -33.5q64 0 104 52z" />
    <glyph glyph-name="ordfeminine" unicode="&#xaa;" horiz-adv-x="379" 
d="M247 419v16q-40 -23 -81 -23q-76 0 -120 47t-44 119q0 71 44 118.5t120 47.5q46 0 81 -23v15h95v-317h-95zM248 578q0 33 -21.5 56t-52.5 23q-35 0 -55.5 -22.5t-20.5 -56.5t21 -56t55 -22q31 0 52.5 22.5t21.5 55.5zM344 276h-310v95h310v-95z" />
    <glyph glyph-name="guillemotleft" unicode="&#xab;" horiz-adv-x="705" 
d="M205 40l-156 234l157 236h165l-163 -236l164 -234h-167zM486 40l-157 234l158 236h164l-162 -236l164 -234h-167z" />
    <glyph glyph-name="logicalnot" unicode="&#xac;" horiz-adv-x="613" 
d="M552 135h-158v168h-350v136h508v-304z" />
    <glyph glyph-name="uni00AD" unicode="&#xad;" horiz-adv-x="866" 
 />
    <glyph glyph-name="registered" unicode="&#xae;" horiz-adv-x="860" 
d="M424 -12q-161 0 -275.5 110.5t-114.5 265.5t114.5 265t275.5 110q162 0 276.5 -110t114.5 -265t-114.5 -265.5t-276.5 -110.5zM424 656q-126 0 -214 -85t-88 -207t88 -207.5t214 -85.5q127 0 215 85.5t88 207.5t-88 207t-215 85zM280 195v348h171q57 0 93 -34.5t36 -89.5
q0 -78 -77 -116l83 -108h-87q-2 2 -22.5 27t-28.5 37l-27 35h-68v-99h-73zM353 364h98q58 0 58 55q0 56 -58 56h-98v-111z" />
    <glyph glyph-name="macron" unicode="&#xaf;" horiz-adv-x="392" 
d="M356 608h-329v106h329v-106z" />
    <glyph glyph-name="degree" unicode="&#xb0;" horiz-adv-x="349" 
d="M173 591q-56 0 -97 39t-41 93q0 55 41 93.5t97 38.5t96 -38.5t40 -93.5q0 -54 -40 -93t-96 -39zM173 763q-17 0 -29.5 -12t-12.5 -28t12.5 -27.5t29.5 -11.5t28.5 11t11.5 28t-11.5 28.5t-28.5 11.5z" />
    <glyph glyph-name="plusminus" unicode="&#xb1;" horiz-adv-x="571" 
d="M499 477v-134h-140v-148h-160v148h-141v134h141v150h160v-150h140zM58 0v136h441v-136h-441z" />
    <glyph glyph-name="uni00B2" unicode="&#xb2;" horiz-adv-x="414" 
d="M381 445v-94h-352v101l175 140q38 29 49.5 50t11.5 45q0 30 -19.5 44t-46.5 14q-50 0 -75 -75l-105 26q13 50 59.5 97t120.5 47q84 0 129.5 -46t45.5 -107q0 -26 -10 -52t-21 -43.5t-36.5 -42t-38.5 -36t-46 -36.5l-42 -32h201z" />
    <glyph glyph-name="uni00B3" unicode="&#xb3;" horiz-adv-x="399" 
d="M362 696q0 -76 -66 -105q66 -31 66 -110q0 -48 -30 -85q-50 -58 -147 -58q-41 0 -74.5 14.5t-53.5 38.5t-31.5 45.5t-18.5 44.5l107 29l1 -13q15 -65 70 -65q33 0 50.5 14t17.5 35q0 28 -15.5 43t-38.5 19.5t-68 6.5v84q45 2 67.5 5.5t38.5 17t16 39.5q0 21 -17.5 34.5
t-50.5 13.5q-56 0 -70 -65l-1 -12l-107 29q7 23 18.5 44.5t31.5 45.5t53.5 38.5t74.5 14.5q90 0 133.5 -42.5t43.5 -100.5z" />
    <glyph glyph-name="acute" unicode="&#xb4;" horiz-adv-x="306" 
d="M148 752l136 -56l-149 -108h-119z" />
    <glyph glyph-name="paragraph" unicode="&#xb6;" horiz-adv-x="566" 
d="M203 0v312q-74 5 -128.5 56.5t-54.5 140.5q0 223 271 223h193v-732h-112v662h-57v-662h-112z" />
    <glyph glyph-name="periodcentered" unicode="&#xb7;" horiz-adv-x="214" 
d="M189 338q0 -33 -24.5 -56.5t-58.5 -23.5t-58 23.5t-24 56.5q0 32 24 55.5t58 23.5t58.5 -23.5t24.5 -55.5z" />
    <glyph glyph-name="cedilla" unicode="&#xb8;" horiz-adv-x="239" 
d="M159 -12q28 -7 43.5 -31.5t13.5 -54.5q-2 -28 -15 -47.5t-33 -27.5t-34.5 -11t-29.5 -3q-27 0 -50.5 8.5t-33.5 16.5l-11 9l28 49q36 -15 60 -15q16 0 23.5 6.5t6.5 16.5q-1 20 -34 20q-11 0 -50 -13l-17 28l35 87h83l-16 -33q13 0 31 -5z" />
    <glyph glyph-name="uni00B9" unicode="&#xb9;" horiz-adv-x="297" 
d="M232 831v-482h-109v302l-62 -58l-76 77l177 161h70z" />
    <glyph glyph-name="ordmasculine" unicode="&#xba;" horiz-adv-x="411" 
d="M200 409q-72 0 -123 49.5t-51 117.5q0 69 51 118.5t123 49.5q71 0 122.5 -49.5t51.5 -118.5q0 -68 -51.5 -117.5t-122.5 -49.5zM200 651q-29 0 -49.5 -22t-20.5 -53t20 -52t50 -21q29 0 49 21t20 52q0 32 -20 53.5t-49 21.5zM355 276h-310v95h310v-95z" />
    <glyph glyph-name="guillemotright" unicode="&#xbb;" horiz-adv-x="705" 
d="M207 274l-161 236h163l159 -236l-158 -234h-166zM488 274l-162 236h164l158 -236l-157 -234h-167z" />
    <glyph glyph-name="onequarter" unicode="&#xbc;" horiz-adv-x="909" 
d="M235 733v-482h-108v302l-63 -57l-75 76l176 161h70zM124 0l453 732h113l-453 -732h-113zM848 197v-93h-60v-104h-108v104h-232v87l259 291h81v-285h60zM680 302l-88 -105h88v105z" />
    <glyph glyph-name="onehalf" unicode="&#xbd;" horiz-adv-x="909" 
d="M236 733v-482h-109v302l-63 -57l-75 76l176 161h71zM124 0l453 732h114l-453 -732h-114zM872 94v-94h-353v101l176 140q37 30 49 51t12 44q0 30 -19.5 44t-46.5 14q-50 0 -75 -75l-105 26q13 50 59.5 97t120.5 47q84 0 129.5 -46t45.5 -107q0 -26 -9.5 -51.5t-21.5 -44
t-36 -42t-39 -35.5l-46 -36l-42 -33h201z" />
    <glyph glyph-name="threequarters" unicode="&#xbe;" horiz-adv-x="996" 
d="M362 593q0 -76 -66 -105q66 -31 66 -110q0 -47 -30 -85q-49 -57 -147 -57q-78 0 -123.5 46t-54.5 96l107 30q2 -16 7 -31.5t22 -31.5t42 -16q33 0 51 14t18 35q0 41 -28 54.5t-95 15.5v84q67 3 95 13.5t28 47.5q0 21 -18 34.5t-51 13.5q-61 0 -71 -77l-107 29
q7 23 18.5 44.5t31.5 45.5t53.5 38.5t74.5 14.5q90 0 133.5 -42.5t43.5 -100.5zM226 0l453 732h113l-452 -732h-114zM950 197v-93h-59v-104h-109v104h-232v87l260 291h81v-285h59zM782 302l-88 -105h88v105z" />
    <glyph glyph-name="questiondown" unicode="&#xbf;" horiz-adv-x="607" 
d="M250 670q0 33 25 56.5t59 23.5t58 -23.5t24 -56.5q0 -32 -24 -56t-58 -24t-59 24t-25 56zM91 67q-58 61 -58 138q0 44 13 78.5t39.5 58.5t45.5 36.5t51 28.5q43 23 59.5 50t16.5 78h155q0 -79 -40.5 -146t-113.5 -105q-40 -20 -53.5 -34.5t-13.5 -42.5q0 -8 3 -16.5
t12 -21t33 -20t59 -7.5q57 0 93 32t50 75l145 -46q-7 -20 -16.5 -41.5t-33.5 -53.5t-53.5 -56t-78.5 -42t-106 -18q-137 0 -208 75z" />
    <glyph glyph-name="Agrave" unicode="&#xc0;" horiz-adv-x="805" 
d="M463 793h-118l-150 108l136 56zM-3 0l401 754l401 -754h-173l-58 112h-341l-56 -112h-174zM305 247h187l-94 191z" />
    <glyph glyph-name="Aacute" unicode="&#xc1;" horiz-adv-x="805" 
d="M462 957l136 -56l-149 -108h-119zM-3 0l401 754l401 -754h-173l-58 112h-341l-56 -112h-174zM305 247h187l-94 191z" />
    <glyph glyph-name="Acircumflex" unicode="&#xc2;" horiz-adv-x="805" 
d="M335 958h127l137 -165h-134l-68 64l-64 -65h-134zM-3 0l401 754l401 -754h-173l-58 112h-341l-56 -112h-174zM305 247h187l-94 191z" />
    <glyph glyph-name="Atilde" unicode="&#xc3;" horiz-adv-x="805" 
d="M319 951q34 0 58.5 -15.5t44 -30.5t41.5 -15q15 0 26.5 5.5t19.5 19.5l9.5 16.5t6.5 15.5l90 -28q-13 -48 -45.5 -89t-83.5 -41q-38 0 -63.5 15.5t-44.5 31t-42 15.5q-39 0 -59 -55l-89 30q39 125 131 125zM-3 0l401 754l401 -754h-173l-58 112h-341l-56 -112h-174z
M305 247h187l-94 191z" />
    <glyph glyph-name="Adieresis" unicode="&#xc4;" horiz-adv-x="805" 
d="M217 858q0 31 22.5 52.5t55.5 21.5t54.5 -21.5t21.5 -52.5q0 -32 -21.5 -52.5t-54.5 -20.5t-55.5 21t-22.5 52zM424 858q0 31 22 52.5t55 21.5q32 0 55 -21.5t23 -52.5t-22.5 -52t-55.5 -21q-34 0 -55.5 20.5t-21.5 52.5zM-3 0l401 754l401 -754h-173l-58 112h-341
l-56 -112h-174zM305 247h187l-94 191z" />
    <glyph glyph-name="Aring" unicode="&#xc5;" horiz-adv-x="805" 
d="M433 687l366 -687h-173l-58 112h-341l-56 -112h-174l366 687q-36 11 -59 41t-23 68q0 46 34.5 79t82.5 33q49 0 83.5 -33t34.5 -79q0 -38 -23 -68t-60 -41zM398 827q-14 0 -23.5 -9t-9.5 -22q0 -14 9.5 -23t23.5 -9t24 9t10 23q0 13 -10 22t-24 9zM305 247h187l-94 191z
" />
    <glyph glyph-name="AE" unicode="&#xc6;" horiz-adv-x="1104" 
d="M622 593v-161h360v-141h-360v-151h406v-140h-565v120h-223l-82 -120h-180l502 732h548v-139h-406zM463 455l-129 -198h129v198z" />
    <glyph glyph-name="Ccedilla" unicode="&#xc7;" horiz-adv-x="809" 
d="M37 365q0 156 115.5 267t278.5 111q108 0 201 -54.5t146 -145.5l-147 -57q-35 50 -88.5 82t-111.5 32q-97 0 -166 -70t-69 -165t69 -165.5t166 -70.5q58 0 111.5 32.5t88.5 83.5l147 -57q-50 -86 -134.5 -140t-184.5 -61l-14 -28q13 0 31 -5q29 -8 44 -32.5t13 -53.5
q-2 -28 -15 -47.5t-33 -27.5t-34.5 -11t-29.5 -3q-27 0 -50.5 8.5t-34.5 16.5l-10 9l28 49q36 -15 60 -15q16 0 23.5 6.5t6.5 16.5q-1 20 -34 20q-11 0 -50 -13l-17 28l34 85q-145 19 -242.5 125.5t-97.5 249.5z" />
    <glyph glyph-name="Egrave" unicode="&#xc8;" horiz-adv-x="700" 
d="M447 793h-118l-150 108l136 56zM235 594v-163h350v-138h-350v-156h396v-137h-554v731h554v-137h-396z" />
    <glyph glyph-name="Eacute" unicode="&#xc9;" horiz-adv-x="700" 
d="M396 957l136 -56l-149 -108h-119zM235 594v-163h350v-138h-350v-156h396v-137h-554v731h554v-137h-396z" />
    <glyph glyph-name="Ecircumflex" unicode="&#xca;" horiz-adv-x="700" 
d="M286 958h127l137 -165h-134l-68 64l-64 -65h-134zM235 594v-163h350v-138h-350v-156h396v-137h-554v731h554v-137h-396z" />
    <glyph glyph-name="Edieresis" unicode="&#xcb;" horiz-adv-x="700" 
d="M175 858q0 31 22.5 52.5t55.5 21.5t54.5 -21.5t21.5 -52.5q0 -32 -21.5 -52.5t-54.5 -20.5t-55.5 21t-22.5 52zM382 858q0 31 22 52.5t55 21.5q32 0 55 -21.5t23 -52.5t-22.5 -52t-55.5 -21q-34 0 -55.5 20.5t-21.5 52.5zM235 594v-163h350v-138h-350v-156h396v-137h-554
v731h554v-137h-396z" />
    <glyph glyph-name="Igrave" unicode="&#xcc;" horiz-adv-x="354" 
d="M241 793h-118l-150 108l136 56zM254 0h-158v731h158v-731z" />
    <glyph glyph-name="Iacute" unicode="&#xcd;" horiz-adv-x="354" 
d="M239 957l136 -56l-149 -108h-119zM254 0h-158v731h158v-731z" />
    <glyph glyph-name="Icircumflex" unicode="&#xce;" horiz-adv-x="354" 
d="M111 958h127l137 -165h-134l-68 64l-64 -65h-134zM254 0h-158v731h158v-731z" />
    <glyph glyph-name="Idieresis" unicode="&#xcf;" horiz-adv-x="354" 
d="M-3 858q0 31 22.5 52.5t55.5 21.5t54.5 -21.5t21.5 -52.5q0 -32 -21.5 -52.5t-54.5 -20.5t-55.5 21t-22.5 52zM204 858q0 31 22 52.5t55 21.5q32 0 55 -21.5t23 -52.5t-22.5 -52t-55.5 -21q-34 0 -55.5 20.5t-21.5 52.5zM254 0h-158v731h158v-731z" />
    <glyph glyph-name="Eth" unicode="&#xd0;" horiz-adv-x="848" 
d="M108 0v294h-82v136h82v301h303q161 0 267 -92q113 -99 113 -273q0 -172 -113 -275q-105 -91 -267 -91h-303zM395 294h-128v-157h144q221 0 221 228t-221 228h-144v-163h128v-136z" />
    <glyph glyph-name="Ntilde" unicode="&#xd1;" horiz-adv-x="828" 
d="M329 951q34 0 58.5 -15.5t44 -30.5t41.5 -15q15 0 26.5 5.5t19.5 19.5l9.5 16.5t6.5 15.5l90 -28q-13 -48 -45.5 -89t-83.5 -41q-38 0 -63.5 15.5t-44.5 31t-42 15.5q-39 0 -59 -55l-89 30q39 125 131 125zM235 416v-416h-157v754l504 -446v422h158v-753z" />
    <glyph glyph-name="Ograve" unicode="&#xd2;" horiz-adv-x="880" 
d="M536 793h-118l-150 108l136 56zM434 -14q-163 0 -278 111.5t-115 268.5q0 156 115 267.5t278 111.5t279 -111.5t116 -267.5q0 -157 -115.5 -268.5t-279.5 -111.5zM434 601q-97 0 -166.5 -70t-69.5 -165t69.5 -166t166.5 -71t166.5 71t69.5 166t-69.5 165t-166.5 70z" />
    <glyph glyph-name="Oacute" unicode="&#xd3;" horiz-adv-x="880" 
d="M488 957l136 -56l-149 -108h-119zM434 -14q-163 0 -278 111.5t-115 268.5q0 156 115 267.5t278 111.5t279 -111.5t116 -267.5q0 -157 -115.5 -268.5t-279.5 -111.5zM434 601q-97 0 -166.5 -70t-69.5 -165t69.5 -166t166.5 -71t166.5 71t69.5 166t-69.5 165t-166.5 70z
" />
    <glyph glyph-name="Ocircumflex" unicode="&#xd4;" horiz-adv-x="880" 
d="M362 958h127l137 -165h-134l-68 64l-64 -65h-134zM434 -14q-163 0 -278 111.5t-115 268.5q0 156 115 267.5t278 111.5t279 -111.5t116 -267.5q0 -157 -115.5 -268.5t-279.5 -111.5zM434 601q-97 0 -166.5 -70t-69.5 -165t69.5 -166t166.5 -71t166.5 71t69.5 166
t-69.5 165t-166.5 70z" />
    <glyph glyph-name="Otilde" unicode="&#xd5;" horiz-adv-x="880" 
d="M348 951q34 0 58.5 -15.5t44 -30.5t41.5 -15q15 0 26.5 5.5t19.5 19.5l9.5 16.5t6.5 15.5l90 -28q-13 -48 -45.5 -89t-83.5 -41q-38 0 -63.5 15.5t-44.5 31t-42 15.5q-39 0 -59 -55l-89 30q39 125 131 125zM434 -14q-163 0 -278 111.5t-115 268.5q0 156 115 267.5
t278 111.5t279 -111.5t116 -267.5q0 -157 -115.5 -268.5t-279.5 -111.5zM434 601q-97 0 -166.5 -70t-69.5 -165t69.5 -166t166.5 -71t166.5 71t69.5 166t-69.5 165t-166.5 70z" />
    <glyph glyph-name="Odieresis" unicode="&#xd6;" horiz-adv-x="880" 
d="M249 858q0 31 22.5 52.5t55.5 21.5t54.5 -21.5t21.5 -52.5q0 -32 -21.5 -52.5t-54.5 -20.5t-55.5 21t-22.5 52zM456 858q0 31 22 52.5t55 21.5q32 0 55 -21.5t23 -52.5t-22.5 -52t-55.5 -21q-34 0 -55.5 20.5t-21.5 52.5zM434 -14q-163 0 -278 111.5t-115 268.5
q0 156 115 267.5t278 111.5t279 -111.5t116 -267.5q0 -157 -115.5 -268.5t-279.5 -111.5zM434 601q-97 0 -166.5 -70t-69.5 -165t69.5 -166t166.5 -71t166.5 71t69.5 166t-69.5 165t-166.5 70z" />
    <glyph glyph-name="multiply" unicode="&#xd7;" horiz-adv-x="524" 
d="M498 428l-132 -126l131 -127l-110 -105l-131 127l-130 -126l-109 106l131 125l-131 125l109 105l130 -124l132 125z" />
    <glyph glyph-name="Oslash" unicode="&#xd8;" horiz-adv-x="880" 
d="M156 -25l-89 74l66 72q-92 106 -92 245q0 156 115 267.5t278 111.5q116 0 215 -62l61 70l90 -75l-64 -70q93 -106 93 -242q0 -157 -115.5 -268.5t-279.5 -111.5q-115 0 -212 59zM434 601q-97 0 -166.5 -70t-69.5 -165q0 -66 40 -128l308 334q-53 29 -112 29zM434 129
q97 0 166.5 71t69.5 166q0 63 -39 126l-308 -335q58 -28 111 -28z" />
    <glyph glyph-name="Ugrave" unicode="&#xd9;" horiz-adv-x="820" 
d="M492 793h-118l-150 108l136 56zM406 -13q-149 0 -238.5 84.5t-89.5 224.5v434h158v-434q0 -49 17 -85t44.5 -54t54.5 -26t54 -8q26 0 53 8t54 26t44 54t17 85v434h158v-434q0 -140 -89 -224.5t-237 -84.5z" />
    <glyph glyph-name="Uacute" unicode="&#xda;" horiz-adv-x="820" 
d="M425 957l136 -56l-149 -108h-119zM406 -13q-149 0 -238.5 84.5t-89.5 224.5v434h158v-434q0 -49 17 -85t44.5 -54t54.5 -26t54 -8q26 0 53 8t54 26t44 54t17 85v434h158v-434q0 -140 -89 -224.5t-237 -84.5z" />
    <glyph glyph-name="Ucircumflex" unicode="&#xdb;" horiz-adv-x="820" 
d="M339 958h127l137 -165h-134l-68 64l-64 -65h-134zM406 -13q-149 0 -238.5 84.5t-89.5 224.5v434h158v-434q0 -49 17 -85t44.5 -54t54.5 -26t54 -8q26 0 53 8t54 26t44 54t17 85v434h158v-434q0 -140 -89 -224.5t-237 -84.5z" />
    <glyph glyph-name="Udieresis" unicode="&#xdc;" horiz-adv-x="820" 
d="M223 858q0 31 22.5 52.5t55.5 21.5t54.5 -21.5t21.5 -52.5q0 -32 -21.5 -52.5t-54.5 -20.5t-55.5 21t-22.5 52zM430 858q0 31 22 52.5t55 21.5q32 0 55 -21.5t23 -52.5t-22.5 -52t-55.5 -21q-34 0 -55.5 20.5t-21.5 52.5zM406 -13q-149 0 -238.5 84.5t-89.5 224.5v434
h158v-434q0 -49 17 -85t44.5 -54t54.5 -26t54 -8q26 0 53 8t54 26t44 54t17 85v434h158v-434q0 -140 -89 -224.5t-237 -84.5z" />
    <glyph glyph-name="Yacute" unicode="&#xdd;" horiz-adv-x="734" 
d="M391 957l136 -56l-149 -108h-119zM734 730l-290 -453v-277h-158v277l-288 453h185l182 -295l184 295h185z" />
    <glyph glyph-name="Thorn" unicode="&#xde;" horiz-adv-x="739" 
d="M417 628q112 0 192.5 -77.5t80.5 -184.5q0 -108 -80 -185t-193 -77h-181v-104h-158v731h158v-103h181zM417 241q46 0 80 39t34 86q0 46 -34 85t-80 39h-181v-249h181z" />
    <glyph glyph-name="germandbls" unicode="&#xdf;" horiz-adv-x="699" 
d="M568 528q0 -37 -23.5 -75t-60.5 -55q62 -16 110 -63t48 -129q0 -108 -66.5 -163t-186.5 -55q-65 0 -121 15v128q56 -9 89 -9q137 0 137 96q0 17 -5.5 30t-18 22t-23 15.5t-32 10.5l-32.5 6t-37 3t-32 1h-31v144q42 0 71.5 9t42.5 23t17.5 25.5t4.5 21.5q0 73 -92 73
q-27 0 -47 -7.5t-28.5 -18.5t-13 -22t-4.5 -18l-1 -8l1 -528h-151v521q0 88 56 150q69 69 188 69q62 0 114 -19.5t89.5 -69t37.5 -123.5z" />
    <glyph glyph-name="agrave" unicode="&#xe0;" 
d="M443 611h-118l-150 108l136 56zM486 0v55q-19 -26 -65.5 -46.5t-101.5 -20.5q-127 0 -201.5 82t-74.5 205t74.5 205t201.5 82q57 0 100.5 -19.5t66.5 -49.5v57h148v-550h-148zM492 275q0 69 -41 112.5t-110 43.5q-70 0 -110.5 -43.5t-40.5 -112.5q0 -67 41.5 -111
t109.5 -44q70 0 110.5 41.5t40.5 113.5z" />
    <glyph glyph-name="aacute" unicode="&#xe1;" 
d="M393 776l136 -56l-149 -108h-119zM486 0v55q-19 -26 -65.5 -46.5t-101.5 -20.5q-127 0 -201.5 82t-74.5 205t74.5 205t201.5 82q57 0 100.5 -19.5t66.5 -49.5v57h148v-550h-148zM492 275q0 69 -41 112.5t-110 43.5q-70 0 -110.5 -43.5t-40.5 -112.5q0 -67 41.5 -111
t109.5 -44q70 0 110.5 41.5t40.5 113.5z" />
    <glyph glyph-name="acircumflex" unicode="&#xe2;" 
d="M303 778h127l137 -165h-134l-68 64l-64 -65h-134zM486 0v55q-19 -26 -65.5 -46.5t-101.5 -20.5q-127 0 -201.5 82t-74.5 205t74.5 205t201.5 82q57 0 100.5 -19.5t66.5 -49.5v57h148v-550h-148zM492 275q0 69 -41 112.5t-110 43.5q-70 0 -110.5 -43.5t-40.5 -112.5
q0 -67 41.5 -111t109.5 -44q70 0 110.5 41.5t40.5 113.5z" />
    <glyph glyph-name="atilde" unicode="&#xe3;" 
d="M276 770q27 0 48.5 -9.5t33 -21t28 -21t34.5 -9.5q15 0 26.5 5.5t19.5 19.5l9.5 16.5t6.5 15.5l90 -28q-13 -48 -45.5 -89t-83.5 -41q-38 0 -63.5 15.5t-44.5 31t-42 15.5q-39 0 -59 -55l-89 30q39 125 131 125zM486 0v55q-19 -26 -65.5 -46.5t-101.5 -20.5
q-127 0 -201.5 82t-74.5 205t74.5 205t201.5 82q57 0 100.5 -19.5t66.5 -49.5v57h148v-550h-148zM492 275q0 69 -41 112.5t-110 43.5q-70 0 -110.5 -43.5t-40.5 -112.5q0 -67 41.5 -111t109.5 -44q70 0 110.5 41.5t40.5 113.5z" />
    <glyph glyph-name="adieresis" unicode="&#xe4;" 
d="M193 683q0 31 22.5 52.5t55.5 21.5t54.5 -21.5t21.5 -52.5q0 -32 -21.5 -52.5t-54.5 -20.5t-55.5 21t-22.5 52zM400 683q0 31 22 52.5t55 21.5q32 0 55 -21.5t23 -52.5t-22.5 -52t-55.5 -21q-34 0 -55.5 20.5t-21.5 52.5zM486 0v55q-19 -26 -65.5 -46.5t-101.5 -20.5
q-127 0 -201.5 82t-74.5 205t74.5 205t201.5 82q57 0 100.5 -19.5t66.5 -49.5v57h148v-550h-148zM492 275q0 69 -41 112.5t-110 43.5q-70 0 -110.5 -43.5t-40.5 -112.5q0 -67 41.5 -111t109.5 -44q70 0 110.5 41.5t40.5 113.5z" />
    <glyph glyph-name="aring" unicode="&#xe5;" 
d="M358 607q-48 0 -82.5 33.5t-34.5 80.5q0 46 34.5 79t82.5 33q49 0 83.5 -33t34.5 -79q0 -47 -34.5 -80.5t-83.5 -33.5zM358 752q-14 0 -23.5 -9t-9.5 -22q0 -14 9.5 -23t23.5 -9t24 9t10 23q0 13 -10 22t-24 9zM486 0v55q-19 -26 -65.5 -46.5t-101.5 -20.5
q-127 0 -201.5 82t-74.5 205t74.5 205t201.5 82q57 0 100.5 -19.5t66.5 -49.5v57h148v-550h-148zM492 275q0 69 -41 112.5t-110 43.5q-70 0 -110.5 -43.5t-40.5 -112.5q0 -67 41.5 -111t109.5 -44q70 0 110.5 41.5t40.5 113.5z" />
    <glyph glyph-name="ae" unicode="&#xe6;" horiz-adv-x="1050" 
d="M710 -14q-54 0 -112.5 20t-102.5 64q-35 -36 -83 -55.5t-82 -23t-83 -3.5q-13 0 -32.5 2.5t-51.5 13.5t-57.5 29t-45 53t-19.5 81q0 47 20.5 83t49.5 55.5t67.5 31.5t68.5 15.5t60 3.5q56 0 101 -7q-8 39 -32.5 57.5t-84.5 18.5q-81 0 -165 -51l-66 113q40 25 110.5 49
t146.5 24q129 0 188 -74q84 73 205 73q113 0 198 -73.5t89 -199.5l-3 -69h-434q6 -31 26 -53t45.5 -31t44 -12.5t34.5 -3.5q84 0 141 64l116 -67q-94 -128 -257 -128zM710 428q-60 0 -98 -28.5t-48 -68.5h275q-9 39 -43 68t-86 29zM285 119q59 0 98.5 29t30.5 88
q-33 4 -100 4q-120 0 -120 -65q0 -19 11.5 -31.5t30 -17t29.5 -6t20 -1.5z" />
    <glyph glyph-name="ccedilla" unicode="&#xe7;" horiz-adv-x="650" 
d="M43 273q0 118 88 202t211 84q87 0 157.5 -41.5t112.5 -118.5l-135 -53q-49 82 -135 82q-65 0 -107.5 -44t-42.5 -111t43 -111t108 -44q90 0 139 80l127 -50q-72 -146 -232 -161l-12 -25q13 0 31 -5q28 -8 43.5 -32.5t13.5 -53.5q-2 -28 -15 -47.5t-33 -27.5t-34.5 -11
t-29.5 -3q-27 0 -50.5 8.5t-34.5 17.5l-10 8l28 49q36 -15 60 -15q16 0 23.5 6.5t6.5 16.5q-1 20 -34 20q-11 0 -50 -13l-17 28l33 82q-107 16 -180 96.5t-73 186.5z" />
    <glyph glyph-name="egrave" unicode="&#xe8;" horiz-adv-x="681" 
d="M431 611h-118l-150 108l136 56zM342 -14q-35 0 -72.5 8t-79 28.5t-73.5 51.5t-53 82.5t-21 116.5t21.5 116.5t54 82.5t74 51.5t78.5 28t71 7.5q113 0 198 -73.5t89 -199.5l-3 -69h-434q6 -31 26 -53t45.5 -31t44 -12.5t34.5 -3.5q84 0 141 64l116 -67q-94 -128 -257 -128
zM341 428q-62 0 -101 -30.5t-44 -74.5h275q-5 41 -41 73t-89 32z" />
    <glyph glyph-name="eacute" unicode="&#xe9;" horiz-adv-x="681" 
d="M393 776l136 -56l-149 -108h-119zM342 -14q-35 0 -72.5 8t-79 28.5t-73.5 51.5t-53 82.5t-21 116.5t21.5 116.5t54 82.5t74 51.5t78.5 28t71 7.5q113 0 198 -73.5t89 -199.5l-3 -69h-434q6 -31 26 -53t45.5 -31t44 -12.5t34.5 -3.5q84 0 141 64l116 -67
q-94 -128 -257 -128zM341 428q-62 0 -101 -30.5t-44 -74.5h275q-5 41 -41 73t-89 32z" />
    <glyph glyph-name="ecircumflex" unicode="&#xea;" horiz-adv-x="681" 
d="M277 778h127l137 -165h-134l-68 64l-64 -65h-134zM342 -14q-35 0 -72.5 8t-79 28.5t-73.5 51.5t-53 82.5t-21 116.5t21.5 116.5t54 82.5t74 51.5t78.5 28t71 7.5q113 0 198 -73.5t89 -199.5l-3 -69h-434q6 -31 26 -53t45.5 -31t44 -12.5t34.5 -3.5q84 0 141 64l116 -67
q-94 -128 -257 -128zM341 428q-62 0 -101 -30.5t-44 -74.5h275q-5 41 -41 73t-89 32z" />
    <glyph glyph-name="edieresis" unicode="&#xeb;" horiz-adv-x="681" 
d="M163 683q0 31 22.5 52.5t55.5 21.5t54.5 -21.5t21.5 -52.5q0 -32 -21.5 -52.5t-54.5 -20.5t-55.5 21t-22.5 52zM370 683q0 31 22 52.5t55 21.5q32 0 55 -21.5t23 -52.5t-22.5 -52t-55.5 -21q-34 0 -55.5 20.5t-21.5 52.5zM342 -14q-35 0 -72.5 8t-79 28.5t-73.5 51.5
t-53 82.5t-21 116.5t21.5 116.5t54 82.5t74 51.5t78.5 28t71 7.5q113 0 198 -73.5t89 -199.5l-3 -69h-434q6 -31 26 -53t45.5 -31t44 -12.5t34.5 -3.5q84 0 141 64l116 -67q-94 -128 -257 -128zM341 428q-62 0 -101 -30.5t-44 -74.5h275q-5 41 -41 73t-89 32z" />
    <glyph glyph-name="igrave" unicode="&#xec;" horiz-adv-x="305" 
d="M219 611h-118l-150 108l136 56zM76 0v549h150v-549h-150z" />
    <glyph glyph-name="iacute" unicode="&#xed;" horiz-adv-x="315" 
d="M216 776l136 -56l-149 -108h-119zM76 0v549h150v-549h-150z" />
    <glyph glyph-name="icircumflex" unicode="&#xee;" horiz-adv-x="305" 
d="M86 778h127l137 -165h-134l-68 64l-64 -65h-134zM76 0v549h150v-549h-150z" />
    <glyph glyph-name="idieresis" unicode="&#xef;" horiz-adv-x="305" 
d="M-28 683q0 31 22.5 52.5t55.5 21.5t54.5 -21.5t21.5 -52.5q0 -32 -21.5 -52.5t-54.5 -20.5t-55.5 21t-22.5 52zM179 683q0 31 22 52.5t55 21.5q32 0 55 -21.5t23 -52.5t-22.5 -52t-55.5 -21q-34 0 -55.5 20.5t-21.5 52.5zM76 0v549h150v-549h-150z" />
    <glyph glyph-name="eth" unicode="&#xf0;" horiz-adv-x="734" 
d="M475 642q65 -64 110 -161t47 -203q0 -131 -77 -211t-221 -80q-39 0 -76 8.5t-74.5 29t-65 50.5t-45 77.5t-17.5 106.5q0 103 73 177t183 74q63 0 111 -21q-34 59 -88 101l-123 -47l-36 84l73 27l-77 45l137 68q16 -10 46.5 -32t38.5 -27l100 39l35 -84zM344 120
q63 0 103.5 37t40.5 97q0 61 -40.5 97.5t-103.5 36.5q-68 0 -106 -36.5t-38 -97.5q0 -60 42 -97t102 -37z" />
    <glyph glyph-name="ntilde" unicode="&#xf1;" horiz-adv-x="658" 
d="M238 770q27 0 48.5 -9.5t33 -21t28 -21t34.5 -9.5q15 0 26.5 5.5t19.5 19.5l9.5 16.5t6.5 15.5l90 -28q-13 -48 -45.5 -89t-83.5 -41q-38 0 -63.5 15.5t-44.5 31t-42 15.5q-39 0 -59 -55l-89 30q39 125 131 125zM364 560q217 0 217 -235v-325h-153v325q0 111 -106 111
q-41 0 -74 -32.5t-31 -112.5v-291h-149v550h149v-49q27 27 68 43t79 16z" />
    <glyph glyph-name="ograve" unicode="&#xf2;" horiz-adv-x="694" 
d="M435 611h-118l-150 108l136 56zM341 -13q-123 0 -210.5 84t-87.5 203q0 118 87.5 202t210.5 84t211.5 -84t88.5 -202q0 -119 -88.5 -203t-211.5 -84zM341 429q-63 0 -107 -45t-44 -110q0 -68 43 -112.5t108 -44.5q64 0 107.5 45t43.5 112q0 66 -43.5 110.5t-107.5 44.5z
" />
    <glyph glyph-name="oacute" unicode="&#xf3;" horiz-adv-x="694" 
d="M384 776l136 -56l-149 -108h-119zM341 -13q-123 0 -210.5 84t-87.5 203q0 118 87.5 202t210.5 84t211.5 -84t88.5 -202q0 -119 -88.5 -203t-211.5 -84zM341 429q-63 0 -107 -45t-44 -110q0 -68 43 -112.5t108 -44.5q64 0 107.5 45t43.5 112q0 66 -43.5 110.5t-107.5 44.5
z" />
    <glyph glyph-name="ocircumflex" unicode="&#xf4;" horiz-adv-x="694" 
d="M277 778h127l137 -165h-134l-68 64l-64 -65h-134zM341 -13q-123 0 -210.5 84t-87.5 203q0 118 87.5 202t210.5 84t211.5 -84t88.5 -202q0 -119 -88.5 -203t-211.5 -84zM341 429q-63 0 -107 -45t-44 -110q0 -68 43 -112.5t108 -44.5q64 0 107.5 45t43.5 112
q0 66 -43.5 110.5t-107.5 44.5z" />
    <glyph glyph-name="otilde" unicode="&#xf5;" horiz-adv-x="694" 
d="M249 770q27 0 48.5 -9.5t33 -21t28 -21t34.5 -9.5q15 0 26.5 5.5t19.5 19.5l9.5 16.5t6.5 15.5l90 -28q-13 -48 -45.5 -89t-83.5 -41q-38 0 -63.5 15.5t-44.5 31t-42 15.5q-39 0 -59 -55l-89 30q39 125 131 125zM341 -13q-123 0 -210.5 84t-87.5 203q0 118 87.5 202
t210.5 84t211.5 -84t88.5 -202q0 -119 -88.5 -203t-211.5 -84zM341 429q-63 0 -107 -45t-44 -110q0 -68 43 -112.5t108 -44.5q64 0 107.5 45t43.5 112q0 66 -43.5 110.5t-107.5 44.5z" />
    <glyph glyph-name="odieresis" unicode="&#xf6;" horiz-adv-x="694" 
d="M161 683q0 31 22.5 52.5t55.5 21.5t54.5 -21.5t21.5 -52.5q0 -32 -21.5 -52.5t-54.5 -20.5t-55.5 21t-22.5 52zM368 683q0 31 22 52.5t55 21.5q32 0 55 -21.5t23 -52.5t-22.5 -52t-55.5 -21q-34 0 -55.5 20.5t-21.5 52.5zM341 -13q-123 0 -210.5 84t-87.5 203
q0 118 87.5 202t210.5 84t211.5 -84t88.5 -202q0 -119 -88.5 -203t-211.5 -84zM341 429q-63 0 -107 -45t-44 -110q0 -68 43 -112.5t108 -44.5q64 0 107.5 45t43.5 112q0 66 -43.5 110.5t-107.5 44.5z" />
    <glyph glyph-name="divide" unicode="&#xf7;" horiz-adv-x="636" 
d="M393 540q0 -31 -23 -54t-56 -23t-56.5 23t-23.5 54t23.5 53.5t56.5 22.5t56 -22t23 -54zM583 244h-538v136h538v-136zM393 87q0 -32 -23 -54t-56 -22t-56.5 22.5t-23.5 53.5t23.5 53t56.5 22t56 -22t23 -53z" />
    <glyph glyph-name="oslash" unicode="&#xf8;" horiz-adv-x="694" 
d="M143 -20l-80 75l41 44q-61 77 -61 175q0 118 87.5 202t210.5 84q84 0 157 -43l44 46l80 -75l-41 -44q60 -76 60 -170q0 -119 -88.5 -203t-211.5 -84q-84 0 -153 40zM341 429q-63 0 -107 -45t-44 -110q0 -38 14 -69l199 211q-31 13 -62 13zM341 117q64 0 107.5 45
t43.5 112q0 32 -13 63l-197 -209q28 -11 59 -11z" />
    <glyph glyph-name="ugrave" unicode="&#xf9;" horiz-adv-x="658" 
d="M410 611h-118l-150 108l136 56zM284 -12q-216 0 -216 235v325h151v-325q0 -110 107 -110q42 0 75 32.5t30 111.5v291h150v-548h-150v47q-57 -59 -147 -59z" />
    <glyph glyph-name="uacute" unicode="&#xfa;" horiz-adv-x="658" 
d="M374 776l136 -56l-149 -108h-119zM284 -12q-216 0 -216 235v325h151v-325q0 -110 107 -110q42 0 75 32.5t30 111.5v291h150v-548h-150v47q-57 -59 -147 -59z" />
    <glyph glyph-name="ucircumflex" unicode="&#xfb;" horiz-adv-x="658" 
d="M260 778h127l137 -165h-134l-68 64l-64 -65h-134zM284 -12q-216 0 -216 235v325h151v-325q0 -110 107 -110q42 0 75 32.5t30 111.5v291h150v-548h-150v47q-57 -59 -147 -59z" />
    <glyph glyph-name="udieresis" unicode="&#xfc;" horiz-adv-x="658" 
d="M143 683q0 31 22.5 52.5t55.5 21.5t54.5 -21.5t21.5 -52.5q0 -32 -21.5 -52.5t-54.5 -20.5t-55.5 21t-22.5 52zM350 683q0 31 22 52.5t55 21.5q32 0 55 -21.5t23 -52.5t-22.5 -52t-55.5 -21q-34 0 -55.5 20.5t-21.5 52.5zM284 -12q-216 0 -216 235v325h151v-325
q0 -110 107 -110q42 0 75 32.5t30 111.5v291h150v-548h-150v47q-57 -59 -147 -59z" />
    <glyph glyph-name="yacute" unicode="&#xfd;" horiz-adv-x="643" 
d="M374 776l136 -56l-149 -108h-119zM315 -206h-165l95 226l-236 528h173l139 -350l128 350h173z" />
    <glyph glyph-name="thorn" unicode="&#xfe;" 
d="M68 -178v934h149v-251q68 57 161 57q131 0 206.5 -82t75.5 -205t-75.5 -205t-206.5 -82q-100 0 -161 57v-223h-149zM211 275q0 -66 43.5 -110.5t107.5 -44.5q68 0 109 44t41 111q0 69 -40 112.5t-110 43.5q-64 0 -107.5 -44.5t-43.5 -111.5z" />
    <glyph glyph-name="ydieresis" unicode="&#xff;" horiz-adv-x="643" 
d="M139 683q0 31 22.5 52.5t55.5 21.5t54.5 -21.5t21.5 -52.5q0 -32 -21.5 -52.5t-54.5 -20.5t-55.5 21t-22.5 52zM346 683q0 31 22 52.5t55 21.5q32 0 55 -21.5t23 -52.5t-22.5 -52t-55.5 -21q-34 0 -55.5 20.5t-21.5 52.5zM315 -206h-165l95 226l-236 528h173l139 -350
l128 350h173z" />
    <glyph glyph-name="Amacron" unicode="&#x100;" horiz-adv-x="805" 
d="M564 794h-329v106h329v-106zM-3 0l401 754l401 -754h-173l-58 112h-341l-56 -112h-174zM305 247h187l-94 191z" />
    <glyph glyph-name="amacron" unicode="&#x101;" 
d="M526 613h-329v106h329v-106zM486 0v55q-19 -26 -65.5 -46.5t-101.5 -20.5q-127 0 -201.5 82t-74.5 205t74.5 205t201.5 82q57 0 100.5 -19.5t66.5 -49.5v57h148v-550h-148zM492 275q0 69 -41 112.5t-110 43.5q-70 0 -110.5 -43.5t-40.5 -112.5q0 -67 41.5 -111t109.5 -44
q70 0 110.5 41.5t40.5 113.5z" />
    <glyph glyph-name="Abreve" unicode="&#x102;" horiz-adv-x="805" 
d="M595 951q-12 -75 -65 -120t-129 -45q-77 0 -131 45.5t-66 119.5h108q18 -62 89 -62q67 0 87 62h107zM-3 0l401 754l401 -754h-173l-58 112h-341l-56 -112h-174zM305 247h187l-94 191z" />
    <glyph glyph-name="abreve" unicode="&#x103;" 
d="M556 774q-12 -75 -65 -120t-129 -45q-77 0 -131 45.5t-66 119.5h108q18 -62 89 -62q67 0 87 62h107zM486 0v55q-19 -26 -65.5 -46.5t-101.5 -20.5q-127 0 -201.5 82t-74.5 205t74.5 205t201.5 82q57 0 100.5 -19.5t66.5 -49.5v57h148v-550h-148zM492 275q0 69 -41 112.5
t-110 43.5q-70 0 -110.5 -43.5t-40.5 -112.5q0 -67 41.5 -111t109.5 -44q70 0 110.5 41.5t40.5 113.5z" />
    <glyph glyph-name="Aogonek" unicode="&#x104;" horiz-adv-x="805" 
d="M823 -67l45 -95q-30 -15 -69 -21q-10 -2 -32 -2q-54 0 -95 31q-53 43 -53 109q0 25 7 45l-58 112h-341l-56 -112h-174l401 754l401 -754h-7q-25 0 -45.5 -12.5t-19.5 -34.5q1 -20 14 -28.5t30.5 -6t31 6.5t20.5 8zM305 247h187l-94 191z" />
    <glyph glyph-name="aogonek" unicode="&#x105;" 
d="M671 -67l45 -95q-30 -15 -69 -21q-10 -2 -32 -2q-57 0 -98 31q-44 35 -44 90q0 37 13 64v45q-61 -57 -160 -57q-131 0 -207 82t-76 205t76 205t207 82q100 0 160 -57v45h148v-550q-25 0 -42.5 -12.5t-16.5 -34.5q1 -20 14 -28.5t30.5 -6t31 6.5t20.5 8zM341 120
q64 0 107.5 44.5t43.5 110.5q0 67 -43.5 111.5t-107.5 44.5q-70 0 -110.5 -43.5t-40.5 -112.5q0 -67 41.5 -111t109.5 -44z" />
    <glyph glyph-name="Cacute" unicode="&#x106;" horiz-adv-x="809" 
d="M452 957l136 -56l-149 -108h-119zM778 188q-53 -92 -145.5 -147t-201.5 -55q-163 0 -278.5 111t-115.5 268q0 156 115.5 267t278.5 111q108 0 201 -54.5t146 -145.5l-147 -57q-35 50 -88.5 82t-111.5 32q-97 0 -166 -70t-69 -165t69 -165.5t166 -70.5q58 0 111.5 32.5
t88.5 83.5z" />
    <glyph glyph-name="cacute" unicode="&#x107;" horiz-adv-x="650" 
d="M381 776l136 -56l-149 -108h-119zM343 -14q-123 0 -211.5 84.5t-88.5 202.5t88 202t211 84q87 0 157.5 -41.5t112.5 -118.5l-135 -53q-49 82 -135 82q-65 0 -107.5 -44t-42.5 -111t43 -111t108 -44q90 0 139 80l127 -50q-79 -162 -266 -162z" />
    <glyph glyph-name="Ccaron" unicode="&#x10c;" horiz-adv-x="809" 
d="M485 793h-127l-137 166h134l69 -65l63 65h134zM778 188q-53 -92 -145.5 -147t-201.5 -55q-163 0 -278.5 111t-115.5 268q0 156 115.5 267t278.5 111q108 0 201 -54.5t146 -145.5l-147 -57q-35 50 -88.5 82t-111.5 32q-97 0 -166 -70t-69 -165t69 -165.5t166 -70.5
q58 0 111.5 32.5t88.5 83.5z" />
    <glyph glyph-name="ccaron" unicode="&#x10d;" horiz-adv-x="650" 
d="M404 612h-127l-137 166h134l69 -65l63 65h134zM343 -14q-123 0 -211.5 84.5t-88.5 202.5t88 202t211 84q87 0 157.5 -41.5t112.5 -118.5l-135 -53q-49 82 -135 82q-65 0 -107.5 -44t-42.5 -111t43 -111t108 -44q90 0 139 80l127 -50q-79 -162 -266 -162z" />
    <glyph glyph-name="Dcaron" unicode="&#x10e;" horiz-adv-x="817" 
d="M415 793h-127l-137 166h134l69 -65l63 65h134zM78 0v731h302q163 0 267 -92q114 -99 114 -273q0 -172 -114 -275q-103 -91 -267 -91h-302zM236 137h144q221 0 221 228t-221 228h-144v-456z" />
    <glyph glyph-name="dcaron" unicode="&#x10f;" horiz-adv-x="789" 
d="M486 0v55q-19 -26 -65.5 -46.5t-101.5 -20.5q-127 0 -201.5 82t-74.5 205t74.5 205t201.5 82q57 0 100.5 -19.5t66.5 -49.5v263h148v-756h-148zM829 678q4 -15 4 -37q0 -55 -38 -103.5t-102 -62.5l-24 49q59 20 70 61q-32 1 -52.5 23t-21.5 53q-2 33 21 57t58 26
q31 1 54 -17t31 -49zM492 275q0 69 -41 112.5t-110 43.5q-70 0 -110.5 -43.5t-40.5 -112.5q0 -67 41.5 -111t109.5 -44q70 0 110.5 41.5t40.5 113.5z" />
    <glyph glyph-name="Dcroat" unicode="&#x110;" horiz-adv-x="848" 
d="M108 0v294h-82v136h82v301h303q161 0 267 -92q113 -99 113 -273q0 -172 -113 -275q-105 -91 -267 -91h-303zM395 294h-128v-157h144q221 0 221 228t-221 228h-144v-163h128v-136z" />
    <glyph glyph-name="dcroat" unicode="&#x111;" 
d="M686 588h-52v-588h-148v44q-70 -58 -160 -58q-131 0 -207 82t-76 206q0 123 76 204.5t207 81.5q100 0 160 -56v84h-88v114h88v54h148v-54h52v-114zM492 274q0 65 -43.5 109.5t-107.5 44.5q-68 0 -109.5 -44t-41.5 -110q0 -70 40.5 -113.5t110.5 -43.5q64 0 107.5 45
t43.5 112z" />
    <glyph glyph-name="Emacron" unicode="&#x112;" horiz-adv-x="700" 
d="M538 794h-329v106h329v-106zM235 594v-163h350v-138h-350v-156h396v-137h-554v731h554v-137h-396z" />
    <glyph glyph-name="emacron" unicode="&#x113;" horiz-adv-x="681" 
d="M506 613h-329v106h329v-106zM342 -14q-35 0 -72.5 8t-79 28.5t-73.5 51.5t-53 82.5t-21 116.5t21.5 116.5t54 82.5t74 51.5t78.5 28t71 7.5q113 0 198 -73.5t89 -199.5l-3 -69h-434q6 -31 26 -53t45.5 -31t44 -12.5t34.5 -3.5q84 0 141 64l116 -67q-94 -128 -257 -128z
M341 428q-62 0 -101 -30.5t-44 -74.5h275q-5 41 -41 73t-89 32z" />
    <glyph glyph-name="Edotaccent" unicode="&#x116;" horiz-adv-x="700" 
d="M285 857q0 31 22.5 53t55.5 22t54.5 -22t21.5 -53q0 -32 -21.5 -52.5t-54.5 -20.5q-34 0 -56 20.5t-22 52.5zM235 594v-163h350v-138h-350v-156h396v-137h-554v731h554v-137h-396z" />
    <glyph glyph-name="edotaccent" unicode="&#x117;" horiz-adv-x="681" 
d="M266 682q0 31 22.5 53t55.5 22t54.5 -22t21.5 -53q0 -32 -21.5 -52.5t-54.5 -20.5q-34 0 -56 20.5t-22 52.5zM342 -14q-35 0 -72.5 8t-79 28.5t-73.5 51.5t-53 82.5t-21 116.5t21.5 116.5t54 82.5t74 51.5t78.5 28t71 7.5q113 0 198 -73.5t89 -199.5l-3 -69h-434
q6 -31 26 -53t45.5 -31t44 -12.5t34.5 -3.5q84 0 141 64l116 -67q-94 -128 -257 -128zM341 428q-62 0 -101 -30.5t-44 -74.5h275q-5 41 -41 73t-89 32z" />
    <glyph glyph-name="Eogonek" unicode="&#x118;" horiz-adv-x="700" 
d="M627 -67l45 -95q-30 -15 -69 -21q-10 -2 -32 -2q-58 0 -101 31.5t-43 86.5q0 42 18 67h-368v731h554v-137h-396v-163h350v-138h-350v-156h396v-137h-35q-25 0 -45.5 -12.5t-19.5 -34.5q1 -20 14 -28.5t30.5 -6t31 6.5t20.5 8z" />
    <glyph glyph-name="eogonek" unicode="&#x119;" horiz-adv-x="681" 
d="M629 286l-3 -69h-434q6 -31 26 -53t45.5 -31t44 -12.5t34.5 -3.5q84 0 141 64l116 -67q-87 -120 -238 -128q-21 -4 -27 -26q-4 -18 5.5 -30.5t28.5 -13.5q30 -1 63 17l45 -95q-30 -15 -69 -21q-10 -2 -32 -2q-58 0 -101 31.5t-43 86.5q0 38 21 66q-40 11 -75 31t-66.5 52
t-49.5 81t-18 110q0 65 21.5 116.5t54 82.5t74 51.5t78.5 28t71 7.5q113 0 198 -73.5t89 -199.5zM196 323h275q-5 41 -41 73t-89 32q-62 0 -101 -30.5t-44 -74.5z" />
    <glyph glyph-name="Ecaron" unicode="&#x11a;" horiz-adv-x="700" 
d="M415 793h-127l-137 166h134l69 -65l63 65h134zM235 594v-163h350v-138h-350v-156h396v-137h-554v731h554v-137h-396z" />
    <glyph glyph-name="ecaron" unicode="&#x11b;" horiz-adv-x="681" 
d="M402 612h-127l-137 166h134l69 -65l63 65h134zM342 -14q-35 0 -72.5 8t-79 28.5t-73.5 51.5t-53 82.5t-21 116.5t21.5 116.5t54 82.5t74 51.5t78.5 28t71 7.5q113 0 198 -73.5t89 -199.5l-3 -69h-434q6 -31 26 -53t45.5 -31t44 -12.5t34.5 -3.5q84 0 141 64l116 -67
q-94 -128 -257 -128zM341 428q-62 0 -101 -30.5t-44 -74.5h275q-5 41 -41 73t-89 32z" />
    <glyph glyph-name="Gbreve" unicode="&#x11e;" horiz-adv-x="861" 
d="M632 951q-12 -75 -65 -120t-129 -45q-77 0 -131 45.5t-66 119.5h108q18 -62 89 -62q67 0 87 62h107zM813 407q2 -40 2 -59q0 -12 -2 -42q-12 -139 -122 -229.5t-260 -90.5q-163 0 -278.5 111t-115.5 268q0 156 115.5 267.5t278.5 111.5q101 0 188.5 -47.5t142.5 -128.5
l-136 -79q-36 49 -87 80t-108 31q-97 0 -167 -70.5t-70 -164.5q0 -95 70 -165.5t167 -70.5q71 0 133.5 40.5t79.5 98.5h-273v139h442z" />
    <glyph glyph-name="gbreve" unicode="&#x11f;" 
d="M556 774q-12 -75 -65 -120t-129 -45q-77 0 -131 45.5t-66 119.5h108q18 -62 89 -62q67 0 87 62h107zM634 49q0 -119 -73.5 -187.5t-204.5 -68.5q-157 0 -263 83l73 106q81 -64 187 -61q133 3 133 128v9q-60 -49 -154 -49q-131 0 -210 79t-79 196q0 118 79 197t210 79
q94 0 154 -49v39h148v-501zM341 135q64 0 107.5 43t43.5 106q0 64 -43.5 106.5t-107.5 42.5q-68 0 -109.5 -42.5t-41.5 -106.5q0 -66 40.5 -107.5t110.5 -41.5z" />
    <glyph glyph-name="uni0122" unicode="&#x122;" horiz-adv-x="861" 
d="M813 407q2 -40 2 -59q0 -12 -2 -42q-12 -139 -122 -229.5t-260 -90.5q-163 0 -278.5 111t-115.5 268q0 156 115.5 267.5t278.5 111.5q101 0 188.5 -47.5t142.5 -128.5l-136 -79q-36 49 -87 80t-108 31q-97 0 -167 -70.5t-70 -164.5q0 -95 70 -165.5t167 -70.5
q71 0 133.5 40.5t79.5 98.5h-273v139h442zM513 -104q4 -15 4 -37q0 -55 -38 -103.5t-102 -62.5l-24 49q59 20 70 61q-32 1 -52.5 23t-21.5 53q-2 33 21 57t58 26q31 1 54 -17t31 -49z" />
    <glyph glyph-name="uni0123" unicode="&#x123;" 
d="M269 677q-4 15 -4 37q0 55 38 103.5t102 62.5l24 -49q-59 -20 -70 -61q32 -1 52.5 -23t21.5 -53q2 -33 -21 -57t-58 -26q-31 -1 -54 17t-31 49zM634 49q0 -119 -73.5 -187.5t-204.5 -68.5q-157 0 -263 83l73 106q81 -64 187 -61q133 3 133 128v9q-60 -49 -154 -49
q-131 0 -210 79t-79 196q0 118 79 197t210 79q94 0 154 -49v39h148v-501zM341 135q64 0 107.5 43t43.5 106q0 64 -43.5 106.5t-107.5 42.5q-68 0 -109.5 -42.5t-41.5 -106.5q0 -66 40.5 -107.5t110.5 -41.5z" />
    <glyph glyph-name="Imacron" unicode="&#x12a;" horiz-adv-x="354" 
d="M338 794h-329v106h329v-106zM254 0h-158v731h158v-731z" />
    <glyph glyph-name="imacron" unicode="&#x12b;" horiz-adv-x="305" 
d="M315 613h-329v106h329v-106zM76 0v549h150v-549h-150z" />
    <glyph glyph-name="Iogonek" unicode="&#x12e;" horiz-adv-x="354" 
d="M281 -67l45 -95q-30 -15 -69 -21q-10 -2 -32 -2q-57 0 -98 31q-44 35 -44 90q0 37 13 64v731h158v-731h-10q-25 0 -42.5 -12.5t-16.5 -34.5q1 -20 14 -28.5t30.5 -6t31 6.5t20.5 8z" />
    <glyph glyph-name="iogonek" unicode="&#x12f;" horiz-adv-x="305" 
d="M151 608q-35 0 -59.5 23.5t-24.5 57.5q0 33 24.5 56.5t59.5 23.5q34 0 58 -23.5t24 -56.5q0 -34 -24 -57.5t-58 -23.5zM261 -67l45 -95q-30 -15 -69 -21q-10 -2 -32 -2q-57 0 -98 31q-44 35 -44 90q0 37 13 64v549h150v-549h-2q-25 0 -42.5 -12.5t-16.5 -34.5
q1 -20 14 -28.5t30.5 -6t31 6.5t20.5 8z" />
    <glyph glyph-name="Idotaccent" unicode="&#x130;" horiz-adv-x="354" 
d="M262 856q0 34 -25.5 59t-60.5 25q-36 0 -62 -25t-26 -59q0 -35 26 -60t62 -25q35 0 60.5 25t25.5 60zM254 0h-158v731h158v-731z" />
    <glyph glyph-name="dotlessi" unicode="&#x131;" horiz-adv-x="305" 
d="M76 0v549h150v-549h-150z" />
    <glyph glyph-name="uni0136" unicode="&#x136;" horiz-adv-x="751" 
d="M236 237v-237h-158v731h158v-305l285 305h196l-301 -310l314 -421h-194l-229 311zM459 -104q4 -15 4 -37q0 -55 -38 -103.5t-102 -62.5l-24 49q59 20 70 61q-32 1 -52.5 23t-21.5 53q-2 33 21 57t58 26q31 1 54 -17t31 -49z" />
    <glyph glyph-name="uni0137" unicode="&#x137;" horiz-adv-x="619" 
d="M70 756h150v-440l187 231h183l-221 -256l230 -291h-181l-144 180l-54 -62v-118h-150v756zM401 -104q4 -15 4 -37q0 -55 -38 -103.5t-102 -62.5l-24 49q59 20 70 61q-32 1 -52.5 23t-21.5 53q-2 33 21 57t58 26q31 1 54 -17t31 -49z" />
    <glyph glyph-name="Lacute" unicode="&#x139;" horiz-adv-x="638" 
d="M221 957l136 -56l-149 -108h-119zM619 137v-137h-542v731h159v-594h383z" />
    <glyph glyph-name="lacute" unicode="&#x13a;" horiz-adv-x="294" 
d="M206 957l136 -56l-149 -108h-119zM70 0v756h150v-756h-150z" />
    <glyph glyph-name="uni013B" unicode="&#x13b;" horiz-adv-x="638" 
d="M619 137v-137h-542v731h159v-594h383zM428 -104q4 -15 4 -37q0 -55 -38 -103.5t-102 -62.5l-24 49q59 20 70 61q-32 1 -52.5 23t-21.5 53q-2 33 21 57t58 26q31 1 54 -17t31 -49z" />
    <glyph glyph-name="uni013C" unicode="&#x13c;" horiz-adv-x="294" 
d="M70 0v756h150v-756h-150zM228 -104q4 -15 4 -37q0 -55 -38 -103.5t-102 -62.5l-24 49q59 20 70 61q-32 1 -52.5 23t-21.5 53q-2 33 21 57t58 26q31 1 54 -17t31 -49z" />
    <glyph glyph-name="Lcaron" unicode="&#x13d;" horiz-adv-x="638" 
d="M463 678q4 -15 4 -37q0 -55 -38 -103.5t-102 -62.5l-24 49q59 20 70 61q-32 1 -52.5 23t-21.5 53q-2 33 21 57t58 26q31 1 54 -17t31 -49zM619 137v-137h-542v731h159v-594h383z" />
    <glyph glyph-name="lcaron" unicode="&#x13e;" horiz-adv-x="420" 
d="M449 678q4 -15 4 -37q0 -55 -38 -103.5t-102 -62.5l-24 49q59 20 70 61q-32 1 -52.5 23t-21.5 53q-2 33 21 57t58 26q31 1 54 -17t31 -49zM254 0h-158v731h158v-731z" />
    <glyph glyph-name="Lslash" unicode="&#x141;" horiz-adv-x="679" 
d="M118 377v354h159v-268l226 124v-153l-226 -123v-174h383v-137h-542v226l-92 -49v151z" />
    <glyph glyph-name="lslash" unicode="&#x142;" horiz-adv-x="316" 
d="M230 426v-426h-150v343l-53 -29v152l53 29v242h150v-158l56 31v-153z" />
    <glyph glyph-name="Nacute" unicode="&#x143;" horiz-adv-x="828" 
d="M436 957l136 -56l-149 -108h-119zM235 416v-416h-157v754l504 -446v422h158v-753z" />
    <glyph glyph-name="nacute" unicode="&#x144;" horiz-adv-x="658" 
d="M350 776l136 -56l-149 -108h-119zM364 560q217 0 217 -235v-325h-153v325q0 111 -106 111q-41 0 -74 -32.5t-31 -112.5v-291h-149v550h149v-49q27 27 68 43t79 16z" />
    <glyph glyph-name="uni0145" unicode="&#x145;" horiz-adv-x="828" 
d="M235 416v-416h-157v754l504 -446v422h158v-753zM514 -104q4 -15 4 -37q0 -55 -38 -103.5t-102 -62.5l-24 49q59 20 70 61q-32 1 -52.5 23t-21.5 53q-2 33 21 57t58 26q31 1 54 -17t31 -49z" />
    <glyph glyph-name="uni0146" unicode="&#x146;" horiz-adv-x="658" 
d="M364 560q217 0 217 -235v-325h-153v325q0 111 -106 111q-41 0 -74 -32.5t-31 -112.5v-291h-149v550h149v-49q27 27 68 43t79 16zM404 -104q4 -15 4 -37q0 -55 -38 -103.5t-102 -62.5l-24 49q59 20 70 61q-32 1 -52.5 23t-21.5 53q-2 33 21 57t58 26q31 1 54 -17t31 -49z
" />
    <glyph glyph-name="Ncaron" unicode="&#x147;" horiz-adv-x="828" 
d="M472 793h-127l-137 166h134l69 -65l63 65h134zM235 416v-416h-157v754l504 -446v422h158v-753z" />
    <glyph glyph-name="ncaron" unicode="&#x148;" horiz-adv-x="658" 
d="M382 612h-127l-137 166h134l69 -65l63 65h134zM364 560q217 0 217 -235v-325h-153v325q0 111 -106 111q-41 0 -74 -32.5t-31 -112.5v-291h-149v550h149v-49q27 27 68 43t79 16z" />
    <glyph glyph-name="Omacron" unicode="&#x14c;" horiz-adv-x="880" 
d="M597 794h-329v106h329v-106zM434 -14q-163 0 -278 111.5t-115 268.5q0 156 115 267.5t278 111.5t279 -111.5t116 -267.5q0 -157 -115.5 -268.5t-279.5 -111.5zM434 601q-97 0 -166.5 -70t-69.5 -165t69.5 -166t166.5 -71t166.5 71t69.5 166t-69.5 165t-166.5 70z" />
    <glyph glyph-name="omacron" unicode="&#x14d;" horiz-adv-x="694" 
d="M506 613h-329v106h329v-106zM341 -13q-123 0 -210.5 84t-87.5 203q0 118 87.5 202t210.5 84t211.5 -84t88.5 -202q0 -119 -88.5 -203t-211.5 -84zM341 429q-63 0 -107 -45t-44 -110q0 -68 43 -112.5t108 -44.5q64 0 107.5 45t43.5 112q0 66 -43.5 110.5t-107.5 44.5z" />
    <glyph glyph-name="Ohungarumlaut" unicode="&#x150;" horiz-adv-x="880" 
d="M391 957l125 -56l-143 -108h-116zM582 957l125 -56l-142 -108h-115zM434 -14q-163 0 -278 111.5t-115 268.5q0 156 115 267.5t278 111.5t279 -111.5t116 -267.5q0 -157 -115.5 -268.5t-279.5 -111.5zM434 601q-97 0 -166.5 -70t-69.5 -165t69.5 -166t166.5 -71t166.5 71
t69.5 166t-69.5 165t-166.5 70z" />
    <glyph glyph-name="ohungarumlaut" unicode="&#x151;" horiz-adv-x="694" 
d="M293 775l125 -56l-143 -108h-116zM484 775l125 -56l-142 -108h-115zM341 -13q-123 0 -210.5 84t-87.5 203q0 118 87.5 202t210.5 84t211.5 -84t88.5 -202q0 -119 -88.5 -203t-211.5 -84zM341 429q-63 0 -107 -45t-44 -110q0 -68 43 -112.5t108 -44.5q64 0 107.5 45
t43.5 112q0 66 -43.5 110.5t-107.5 44.5z" />
    <glyph glyph-name="OE" unicode="&#x152;" horiz-adv-x="1206" 
d="M723 593v-162h360v-140h-360v-152h405v-139h-563v8q-60 -22 -128 -22q-163 0 -278.5 111.5t-115.5 268.5q0 156 115.5 267.5t278.5 111.5q65 0 128 -22v8h563v-138h-405zM437 124q80 0 128 50v384q-41 49 -128 49q-102 0 -169 -63.5t-67 -177.5q0 -110 67.5 -176
t168.5 -66z" />
    <glyph glyph-name="oe" unicode="&#x153;" horiz-adv-x="1120" 
d="M781 -14q-58 0 -118.5 23t-102.5 73q-88 -95 -219 -95q-123 0 -210.5 84t-87.5 203q0 118 87.5 202t210.5 84q131 0 220 -97q43 50 103.5 73t116.5 23q113 0 198 -73.5t89 -199.5l-3 -69h-434q6 -31 26 -53t45.5 -31t44 -12.5t34.5 -3.5q84 0 141 64l116 -67
q-94 -128 -257 -128zM341 429q-63 0 -107 -45t-44 -110q0 -68 43 -112.5t108 -44.5q64 0 107.5 45t43.5 112q0 66 -43.5 110.5t-107.5 44.5zM781 428q-60 0 -98 -28.5t-48 -68.5h275q-9 39 -43 68t-86 29z" />
    <glyph glyph-name="Racute" unicode="&#x154;" horiz-adv-x="729" 
d="M382 957l136 -56l-149 -108h-119zM235 0h-157v731h325q118 0 191 -70.5t73 -183.5q0 -79 -40 -141t-109 -91l189 -245h-189l-175 228h-108v-228zM235 365h168q41 0 74 29.5t33 82.5q0 18 -4 35t-14.5 37t-33 32.5t-55.5 12.5h-168v-229z" />
    <glyph glyph-name="racute" unicode="&#x155;" horiz-adv-x="424" 
d="M213 776l136 -56l-149 -108h-119zM404 414q-15 1 -34 -0.5t-47.5 -11t-51 -26t-39 -51.5t-16.5 -82v-243h-149v550h149v-73q37 49 90.5 66.5t97.5 16.5v-146z" />
    <glyph glyph-name="uni0156" unicode="&#x156;" horiz-adv-x="729" 
d="M235 0h-157v731h325q118 0 191 -70.5t73 -183.5q0 -79 -40 -141t-109 -91l189 -245h-189l-175 228h-108v-228zM235 365h168q41 0 74 29.5t33 82.5q0 18 -4 35t-14.5 37t-33 32.5t-55.5 12.5h-168v-229zM442 -104q4 -15 4 -37q0 -55 -38 -103.5t-102 -62.5l-24 49
q59 20 70 61q-32 1 -52.5 23t-21.5 53q-2 33 21 57t58 26q31 1 54 -17t31 -49z" />
    <glyph glyph-name="uni0157" unicode="&#x157;" horiz-adv-x="424" 
d="M404 414q-15 1 -34 -0.5t-47.5 -11t-51 -26t-39 -51.5t-16.5 -82v-243h-149v550h149v-73q37 49 90.5 66.5t97.5 16.5v-146zM221 -104q4 -15 4 -37q0 -55 -38 -103.5t-102 -62.5l-24 49q59 20 70 61q-32 1 -52.5 23t-21.5 53q-2 33 21 57t58 26q31 1 54 -17t31 -49z" />
    <glyph glyph-name="Rcaron" unicode="&#x158;" horiz-adv-x="729" 
d="M401 793h-127l-137 166h134l69 -65l63 65h134zM235 0h-157v731h325q118 0 191 -70.5t73 -183.5q0 -79 -40 -141t-109 -91l189 -245h-189l-175 228h-108v-228zM235 365h168q41 0 74 29.5t33 82.5q0 18 -4 35t-14.5 37t-33 32.5t-55.5 12.5h-168v-229z" />
    <glyph glyph-name="rcaron" unicode="&#x159;" horiz-adv-x="424" 
d="M280 612h-127l-137 166h134l69 -65l63 65h134zM404 414q-15 1 -34 -0.5t-47.5 -11t-51 -26t-39 -51.5t-16.5 -82v-243h-149v550h149v-73q37 49 90.5 66.5t97.5 16.5v-146z" />
    <glyph glyph-name="Sacute" unicode="&#x15a;" horiz-adv-x="707" 
d="M384 957l136 -56l-149 -108h-119zM129 221q43 -36 114 -64.5t130 -28.5q62 0 98.5 24t36.5 57q0 17 -9.5 30t-22.5 21.5t-37.5 16t-43 11l-50.5 9.5q-40 7 -67 12.5t-73.5 22.5t-75.5 39t-51.5 61t-22.5 89q0 62 26.5 107.5t71 69t92 34t100.5 10.5q90 0 156.5 -24.5
t132.5 -73.5l-88 -120q-105 75 -207 75q-28 0 -54 -5.5t-49 -22.5t-23 -44q0 -17 10.5 -30t32 -21t40 -13t47.5 -11l15 -3q12 -2 37.5 -7l40.5 -8t40.5 -9.5t41.5 -13t38 -16.5t36 -21.5t29.5 -28t24 -35.5t14.5 -43.5t6 -53.5q0 -111 -78.5 -169t-212.5 -58
q-196 0 -330 114z" />
    <glyph glyph-name="sacute" unicode="&#x15b;" horiz-adv-x="572" 
d="M322 776l136 -56l-149 -108h-119zM296 -13q-150 0 -258 86l78 104q87 -59 178 -59q34 0 56.5 14t22.5 35q0 10 -7.5 18t-22.5 13t-25.5 7.5t-29 5t-21.5 2.5q-25 4 -36.5 6.5t-39 9.5t-42.5 14t-37 21t-33.5 30t-20.5 39.5t-9 52.5q0 46 19 80t45 51t61 27.5t57.5 13
t44.5 2.5q124 0 229 -79l-78 -102q-87 51 -156 51q-25 0 -48.5 -11t-23.5 -30q0 -36 104 -49q101 -17 139 -37q80 -41 80 -137q0 -86 -59 -132.5t-167 -46.5z" />
    <glyph glyph-name="Scedilla" unicode="&#x15e;" horiz-adv-x="707" 
d="M666 213q0 -106 -72 -164t-196 -63l-12 -24q13 0 31 -5q28 -8 43.5 -32.5t13.5 -53.5q-2 -28 -15 -47.5t-33 -27.5t-34.5 -11t-29.5 -3q-27 0 -50.5 8.5t-33.5 17.5l-11 8l28 49q36 -15 60 -15q16 0 23.5 6.5t6.5 16.5q-1 20 -34 20q-11 0 -50 -13l-17 28l32 81
q-159 14 -271 111l84 121q43 -36 114 -64.5t130 -28.5q62 0 98.5 24t36.5 57q0 17 -9.5 30t-22.5 21.5t-37.5 16t-43 11l-50.5 9.5q-40 7 -67 12.5t-73.5 22.5t-75.5 39t-51.5 61t-22.5 89q0 62 26.5 107.5t71 69t92 34t100.5 10.5q90 0 156.5 -24.5t132.5 -73.5l-88 -120
q-105 75 -207 75q-28 0 -54 -5.5t-49 -22.5t-23 -44q0 -17 10.5 -30t32 -21t40 -13t47.5 -11l15 -3q12 -2 37.5 -7l40.5 -8t40.5 -9.5t41.5 -13t38 -16.5t36 -21.5t29.5 -28t24 -35.5t14.5 -43.5t6 -53.5z" />
    <glyph glyph-name="scedilla" unicode="&#x15f;" horiz-adv-x="572" 
d="M522 166q0 -79 -51 -125.5t-145 -52.5l-13 -26q13 0 31 -5q29 -8 44 -32.5t13 -53.5q-2 -28 -15 -47.5t-33 -27.5t-34.5 -11t-29.5 -3q-27 0 -50.5 8.5t-34.5 17.5l-10 8l28 49q36 -15 60 -15q16 0 23.5 6.5t6.5 16.5q-1 20 -34 20q-11 0 -50 -13l-17 28l33 82
q-117 12 -206 83l78 104q87 -59 178 -59q34 0 56.5 14t22.5 35q0 10 -7.5 18t-22.5 13t-25.5 7.5t-29 5t-21.5 2.5q-25 4 -36.5 6.5t-39 9.5t-42.5 14t-37 21t-33.5 30t-20.5 39.5t-9 52.5q0 46 19 80t45 51t61 27.5t57.5 13t44.5 2.5q124 0 229 -79l-78 -102
q-87 51 -156 51q-25 0 -48.5 -11t-23.5 -30q0 -36 104 -49q101 -17 139 -37q80 -41 80 -137z" />
    <glyph glyph-name="Scaron" unicode="&#x160;" horiz-adv-x="707" 
d="M418 793h-127l-137 166h134l69 -65l63 65h134zM129 221q43 -36 114 -64.5t130 -28.5q62 0 98.5 24t36.5 57q0 17 -9.5 30t-22.5 21.5t-37.5 16t-43 11l-50.5 9.5q-40 7 -67 12.5t-73.5 22.5t-75.5 39t-51.5 61t-22.5 89q0 62 26.5 107.5t71 69t92 34t100.5 10.5
q90 0 156.5 -24.5t132.5 -73.5l-88 -120q-105 75 -207 75q-28 0 -54 -5.5t-49 -22.5t-23 -44q0 -17 10.5 -30t32 -21t40 -13t47.5 -11l15 -3q12 -2 37.5 -7l40.5 -8t40.5 -9.5t41.5 -13t38 -16.5t36 -21.5t29.5 -28t24 -35.5t14.5 -43.5t6 -53.5q0 -111 -78.5 -169
t-212.5 -58q-196 0 -330 114z" />
    <glyph glyph-name="scaron" unicode="&#x161;" horiz-adv-x="572" 
d="M343 612h-127l-137 166h134l69 -65l63 65h134zM296 -13q-150 0 -258 86l78 104q87 -59 178 -59q34 0 56.5 14t22.5 35q0 10 -7.5 18t-22.5 13t-25.5 7.5t-29 5t-21.5 2.5q-25 4 -36.5 6.5t-39 9.5t-42.5 14t-37 21t-33.5 30t-20.5 39.5t-9 52.5q0 46 19 80t45 51t61 27.5
t57.5 13t44.5 2.5q124 0 229 -79l-78 -102q-87 51 -156 51q-25 0 -48.5 -11t-23.5 -30q0 -36 104 -49q101 -17 139 -37q80 -41 80 -137q0 -86 -59 -132.5t-167 -46.5z" />
    <glyph glyph-name="uni0162" unicode="&#x162;" horiz-adv-x="647" 
d="M628 594h-212v-594h-159v594h-213v137h584v-137zM417 -104q4 -15 4 -37q0 -55 -38 -103.5t-102 -62.5l-24 49q59 20 70 61q-32 1 -52.5 23t-21.5 53q-2 33 21 57t58 26q31 1 54 -17t31 -49z" />
    <glyph glyph-name="uni0163" unicode="&#x163;" horiz-adv-x="410" 
d="M254 428v-232q0 -16 1.5 -26.5t7 -25t20.5 -22.5t39 -8q20 0 38 2v-126q-36 -4 -67 -4q-96 0 -141.5 28t-45.5 109v305h-67v131h67v147h148v-147h110v-131h-110zM295 -104q4 -15 4 -37q0 -55 -38 -103.5t-102 -62.5l-24 49q59 20 70 61q-32 1 -52.5 23t-21.5 53
q-2 33 21 57t58 26q31 1 54 -17t31 -49z" />
    <glyph glyph-name="Tcaron" unicode="&#x164;" horiz-adv-x="647" 
d="M401 793h-127l-137 166h134l69 -65l63 65h134zM628 594h-212v-594h-159v594h-213v137h584v-137z" />
    <glyph glyph-name="tcaron" unicode="&#x165;" horiz-adv-x="497" 
d="M537 678q4 -15 4 -37q0 -55 -38 -103.5t-102 -62.5l-24 49q59 20 70 61q-32 1 -52.5 23t-21.5 53q-2 33 21 57t58 26q31 1 54 -17t31 -49zM254 428v-232q0 -16 1.5 -26.5t7 -25t20.5 -22.5t39 -8q20 0 38 2v-126q-36 -4 -67 -4q-96 0 -141.5 28t-45.5 109v305h-67v131h67
v147h148v-147h110v-131h-110z" />
    <glyph glyph-name="Umacron" unicode="&#x16a;" horiz-adv-x="820" 
d="M566 794h-329v106h329v-106zM406 -13q-149 0 -238.5 84.5t-89.5 224.5v434h158v-434q0 -49 17 -85t44.5 -54t54.5 -26t54 -8q26 0 53 8t54 26t44 54t17 85v434h158v-434q0 -140 -89 -224.5t-237 -84.5z" />
    <glyph glyph-name="umacron" unicode="&#x16b;" horiz-adv-x="658" 
d="M482 613h-329v106h329v-106zM284 -12q-216 0 -216 235v325h151v-325q0 -110 107 -110q42 0 75 32.5t30 111.5v291h150v-548h-150v47q-57 -59 -147 -59z" />
    <glyph glyph-name="Uring" unicode="&#x16e;" horiz-adv-x="820" 
d="M405 791q-48 0 -82.5 33.5t-34.5 80.5q0 46 34.5 79t82.5 33q49 0 83.5 -33t34.5 -79q0 -47 -34.5 -80.5t-83.5 -33.5zM405 936q-14 0 -23.5 -9t-9.5 -22q0 -14 9.5 -23t23.5 -9t24 9t10 23q0 13 -10 22t-24 9zM406 -13q-149 0 -238.5 84.5t-89.5 224.5v434h158v-434
q0 -49 17 -85t44.5 -54t54.5 -26t54 -8q26 0 53 8t54 26t44 54t17 85v434h158v-434q0 -140 -89 -224.5t-237 -84.5z" />
    <glyph glyph-name="uring" unicode="&#x16f;" horiz-adv-x="658" 
d="M324 611q-48 0 -82.5 33.5t-34.5 80.5q0 46 34.5 79t82.5 33q49 0 83.5 -33t34.5 -79q0 -47 -34.5 -80.5t-83.5 -33.5zM324 756q-14 0 -23.5 -9t-9.5 -22q0 -14 9.5 -23t23.5 -9t24 9t10 23q0 13 -10 22t-24 9zM284 -12q-216 0 -216 235v325h151v-325q0 -110 107 -110
q42 0 75 32.5t30 111.5v291h150v-548h-150v47q-57 -59 -147 -59z" />
    <glyph glyph-name="Uhungarumlaut" unicode="&#x170;" horiz-adv-x="820" 
d="M359 957l125 -56l-143 -108h-116zM550 957l125 -56l-142 -108h-115zM406 -13q-149 0 -238.5 84.5t-89.5 224.5v434h158v-434q0 -49 17 -85t44.5 -54t54.5 -26t54 -8q26 0 53 8t54 26t44 54t17 85v434h158v-434q0 -140 -89 -224.5t-237 -84.5z" />
    <glyph glyph-name="uhungarumlaut" unicode="&#x171;" horiz-adv-x="658" 
d="M271 775l125 -56l-143 -108h-116zM462 775l125 -56l-142 -108h-115zM284 -12q-216 0 -216 235v325h151v-325q0 -110 107 -110q42 0 75 32.5t30 111.5v291h150v-548h-150v47q-57 -59 -147 -59z" />
    <glyph glyph-name="Uogonek" unicode="&#x172;" horiz-adv-x="820" 
d="M574 730h158v-434q0 -134 -82 -217.5t-220 -90.5q-28 -4 -33 -28q-4 -18 5.5 -30.5t28.5 -13.5q30 -1 63 17l45 -95q-30 -15 -69 -21q-10 -2 -32 -2q-58 0 -101 31.5t-43 86.5q0 36 19 64q-109 24 -172 103.5t-63 195.5v434h158v-434q0 -49 17 -85t44.5 -54t54.5 -26
t54 -8q26 0 53 8t54 26t44 54t17 85v434z" />
    <glyph glyph-name="uogonek" unicode="&#x173;" horiz-adv-x="658" 
d="M617 -55l45 -95q-30 -15 -69 -21q-10 -2 -32 -2q-58 0 -101 31.5t-43 86.5q0 31 14 55v47q-57 -59 -147 -59q-216 0 -216 235v325h151v-325q0 -110 107 -110q42 0 75 32.5t30 111.5v291h150v-548h-22q-33 0 -39 -28q-4 -18 5.5 -30.5t28.5 -13.5q30 -1 63 17z" />
    <glyph glyph-name="Ydieresis" unicode="&#x178;" horiz-adv-x="734" 
d="M184 858q0 31 22.5 52.5t55.5 21.5t54.5 -21.5t21.5 -52.5q0 -32 -21.5 -52.5t-54.5 -20.5t-55.5 21t-22.5 52zM391 858q0 31 22 52.5t55 21.5q32 0 55 -21.5t23 -52.5t-22.5 -52t-55.5 -21q-34 0 -55.5 20.5t-21.5 52.5zM734 730l-290 -453v-277h-158v277l-288 453h185
l182 -295l184 295h185z" />
    <glyph glyph-name="Zacute" unicode="&#x179;" horiz-adv-x="730" 
d="M415 957l136 -56l-149 -108h-119zM288 137h396v-137h-685l430 593h-380v137h670z" />
    <glyph glyph-name="zacute" unicode="&#x17a;" horiz-adv-x="566" 
d="M326 776l136 -56l-149 -108h-119zM294 419h-258v129h523l-300 -418h269v-130h-533z" />
    <glyph glyph-name="Zdotaccent" unicode="&#x17b;" horiz-adv-x="730" 
d="M303 857q0 31 22.5 53t55.5 22t54.5 -22t21.5 -53q0 -32 -21.5 -52.5t-54.5 -20.5q-34 0 -56 20.5t-22 52.5zM288 137h396v-137h-685l430 593h-380v137h670z" />
    <glyph glyph-name="zdotaccent" unicode="&#x17c;" horiz-adv-x="566" 
d="M226 682q0 31 22.5 53t55.5 22t54.5 -22t21.5 -53q0 -32 -21.5 -52.5t-54.5 -20.5q-34 0 -56 20.5t-22 52.5zM294 419h-258v129h523l-300 -418h269v-130h-533z" />
    <glyph glyph-name="Zcaron" unicode="&#x17d;" horiz-adv-x="730" 
d="M437 793h-127l-137 166h134l69 -65l63 65h134zM288 137h396v-137h-685l430 593h-380v137h670z" />
    <glyph glyph-name="zcaron" unicode="&#x17e;" horiz-adv-x="566" 
d="M352 612h-127l-137 166h134l69 -65l63 65h134zM294 419h-258v129h523l-300 -418h269v-130h-533z" />
    <glyph glyph-name="uni0218" unicode="&#x218;" horiz-adv-x="707" 
d="M129 221q43 -36 114 -64.5t130 -28.5q62 0 98.5 24t36.5 57q0 17 -9.5 30t-22.5 21.5t-37.5 16t-43 11l-50.5 9.5q-40 7 -67 12.5t-73.5 22.5t-75.5 39t-51.5 61t-22.5 89q0 62 26.5 107.5t71 69t92 34t100.5 10.5q90 0 156.5 -24.5t132.5 -73.5l-88 -120
q-105 75 -207 75q-28 0 -54 -5.5t-49 -22.5t-23 -44q0 -17 10.5 -30t32 -21t40 -13t47.5 -11l15 -3q12 -2 37.5 -7l40.5 -8t40.5 -9.5t41.5 -13t38 -16.5t36 -21.5t29.5 -28t24 -35.5t14.5 -43.5t6 -53.5q0 -111 -78.5 -169t-212.5 -58q-196 0 -330 114zM451 -104
q4 -15 4 -37q0 -55 -38 -103.5t-102 -62.5l-24 49q59 20 70 61q-32 1 -52.5 23t-21.5 53q-2 33 21 57t58 26q31 1 54 -17t31 -49z" />
    <glyph glyph-name="uni0219" unicode="&#x219;" horiz-adv-x="572" 
d="M296 -13q-150 0 -258 86l78 104q87 -59 178 -59q34 0 56.5 14t22.5 35q0 10 -7.5 18t-22.5 13t-25.5 7.5t-29 5t-21.5 2.5q-25 4 -36.5 6.5t-39 9.5t-42.5 14t-37 21t-33.5 30t-20.5 39.5t-9 52.5q0 46 19 80t45 51t61 27.5t57.5 13t44.5 2.5q124 0 229 -79l-78 -102
q-87 51 -156 51q-25 0 -48.5 -11t-23.5 -30q0 -36 104 -49q101 -17 139 -37q80 -41 80 -137q0 -86 -59 -132.5t-167 -46.5zM377 -104q4 -15 4 -37q0 -55 -38 -103.5t-102 -62.5l-24 49q59 20 70 61q-32 1 -52.5 23t-21.5 53q-2 33 21 57t58 26q31 1 54 -17t31 -49z" />
    <glyph glyph-name="uni021A" unicode="&#x21a;" horiz-adv-x="647" 
d="M628 594h-212v-594h-159v594h-213v137h584v-137zM418 -104q4 -15 4 -37q0 -55 -38 -103.5t-102 -62.5l-24 49q59 20 70 61q-32 1 -52.5 23t-21.5 53q-2 33 21 57t58 26q31 1 54 -17t31 -49z" />
    <glyph glyph-name="uni021B" unicode="&#x21b;" horiz-adv-x="410" 
d="M254 428v-232q0 -16 1.5 -26.5t7 -25t20.5 -22.5t39 -8q20 0 38 2v-126q-36 -4 -67 -4q-96 0 -141.5 28t-45.5 109v305h-67v131h67v147h148v-147h110v-131h-110zM282 -104q4 -15 4 -37q0 -55 -38 -103.5t-102 -62.5l-24 49q59 20 70 61q-32 1 -52.5 23t-21.5 53
q-2 33 21 57t58 26q31 1 54 -17t31 -49z" />
    <glyph glyph-name="circumflex" unicode="&#x2c6;" horiz-adv-x="448" 
d="M154 751h127l137 -165h-134l-68 64l-64 -65h-134z" />
    <glyph glyph-name="caron" unicode="&#x2c7;" horiz-adv-x="449" 
d="M283 585h-127l-137 166h134l69 -65l63 65h134z" />
    <glyph glyph-name="breve" unicode="&#x2d8;" horiz-adv-x="445" 
d="M416 739q-12 -75 -65 -120t-129 -45q-77 0 -131 45.5t-66 119.5h108q18 -62 89 -62q67 0 87 62h107z" />
    <glyph glyph-name="dotaccent" unicode="&#x2d9;" horiz-adv-x="219" 
d="M29 689q0 31 22.5 53t55.5 22t54.5 -22t21.5 -53q0 -32 -21.5 -52.5t-54.5 -20.5q-34 0 -56 20.5t-22 52.5z" />
    <glyph glyph-name="ring" unicode="&#x2da;" horiz-adv-x="289" 
d="M142 509q-48 0 -82.5 33.5t-34.5 80.5q0 46 34.5 79t82.5 33q49 0 83.5 -33t34.5 -79q0 -47 -34.5 -80.5t-83.5 -33.5zM142 654q-14 0 -23.5 -9t-9.5 -22q0 -14 9.5 -23t23.5 -9t24 9t10 23q0 13 -10 22t-24 9z" />
    <glyph glyph-name="ogonek" unicode="&#x2db;" horiz-adv-x="289" 
d="M175 -185q-54 0 -95 31q-53 43 -53 109q0 46 27 83q22 28 65 46t75 20l6 -104q-25 0 -45.5 -12.5t-19.5 -34.5q1 -20 14 -28.5t30.5 -6t31 6.5t20.5 8l45 -95q-30 -15 -69 -21q-10 -2 -32 -2z" />
    <glyph glyph-name="tilde" unicode="&#x2dc;" horiz-adv-x="492" 
d="M160 738q27 0 48.5 -9.5t33 -21t28 -21t34.5 -9.5q15 0 26.5 5.5t19.5 19.5l9.5 16.5t6.5 15.5l90 -28q-13 -48 -45.5 -89t-83.5 -41q-38 0 -63.5 15.5t-44.5 31t-42 15.5q-39 0 -59 -55l-89 30q39 125 131 125z" />
    <glyph glyph-name="hungarumlaut" unicode="&#x2dd;" horiz-adv-x="497" 
d="M145 742l125 -56l-143 -108h-116zM336 742l125 -56l-142 -108h-115z" />
    <glyph glyph-name="endash" unicode="&#x2013;" horiz-adv-x="514" 
d="M470 220h-437v136h437v-136z" />
    <glyph glyph-name="emdash" unicode="&#x2014;" horiz-adv-x="765" 
d="M716 220h-682v136h682v-136z" />
    <glyph glyph-name="quoteleft" unicode="&#x2018;" horiz-adv-x="256" 
d="M42 542q-4 22 -4 37q0 56 37.5 104t102.5 62l25 -49q-63 -21 -73 -61q33 -1 54.5 -23t22.5 -53q2 -33 -21.5 -57.5t-57.5 -25.5q-32 -1 -55 17t-31 49z" />
    <glyph glyph-name="quoteright" unicode="&#x2019;" horiz-adv-x="200" 
d="M179 678q4 -15 4 -37q0 -55 -38 -103.5t-102 -62.5l-24 49q59 20 70 61q-32 1 -52.5 23t-21.5 53q-2 33 21 57t58 26q31 1 54 -17t31 -49z" />
    <glyph glyph-name="quotesinglbase" unicode="&#x201a;" horiz-adv-x="218" 
d="M184 86q5 -20 5 -37q0 -56 -38 -104t-103 -62l-23 50q57 17 70 59q-32 1 -52.5 23t-22.5 53q-1 33 22 57.5t57 26.5q31 1 54.5 -17t30.5 -49z" />
    <glyph glyph-name="quotedblleft" unicode="&#x201c;" horiz-adv-x="461" 
d="M43 542q-3 16 -3 37q0 56 37.5 104t102.5 62l24 -49q-63 -22 -72 -61q32 -1 53.5 -23t22.5 -53q2 -33 -21.5 -57.5t-57.5 -25.5q-32 -1 -55.5 17t-30.5 49zM236 542q-4 15 -4 37q0 55 38 103.5t102 62.5l24 -49q-58 -21 -69 -61q31 -1 52 -23t22 -53q2 -33 -21.5 -57
t-58.5 -26q-31 -1 -54.5 17t-30.5 49z" />
    <glyph glyph-name="quotedblright" unicode="&#x201d;" horiz-adv-x="408" 
d="M186 678q4 -16 4 -38q0 -55 -38 -103.5t-102 -62.5l-23 49q56 20 69 61q-32 1 -52.5 23t-21.5 53q-2 33 21.5 57.5t57.5 25.5q31 1 54.5 -16.5t30.5 -48.5zM380 678q4 -16 4 -38q0 -55 -38 -103.5t-103 -62.5l-24 49q60 19 71 61q-33 1 -54 23t-21 53q-1 33 22 57t57 26
q31 1 54.5 -16.5t31.5 -48.5z" />
    <glyph glyph-name="quotedblbase" unicode="&#x201e;" horiz-adv-x="408" 
d="M186 85q4 -16 4 -37q0 -56 -38 -104t-102 -62l-23 49q55 18 69 60q-32 1 -52.5 23t-21.5 53q-2 33 21.5 58t57.5 26q31 1 54.5 -17t30.5 -49zM380 85q4 -16 4 -37q0 -56 -38 -104t-103 -62l-24 49q60 17 71 60q-33 1 -54 23t-21 53q-1 33 22 57.5t57 26.5q31 1 54.5 -17
t31.5 -49z" />
    <glyph glyph-name="dagger" unicode="&#x2020;" horiz-adv-x="502" 
d="M479 446h-165v-446h-131v446h-166v126h166v187h131v-187h165v-126z" />
    <glyph glyph-name="daggerdbl" unicode="&#x2021;" horiz-adv-x="509" 
d="M17 313h166v133h-166v126h166v187h131v-187h165v-126h-165v-133h165v-126h-165v-187h-131v187h-166v126z" />
    <glyph glyph-name="bullet" unicode="&#x2022;" horiz-adv-x="376" 
d="M63 306q0 49 36.5 83.5t86.5 34.5q51 0 87 -34.5t36 -83.5t-36 -83.5t-87 -34.5q-50 0 -86.5 34.5t-36.5 83.5z" />
    <glyph glyph-name="ellipsis" unicode="&#x2026;" horiz-adv-x="760" 
d="M213 72q0 -33 -24.5 -56.5t-58.5 -23.5t-58 23.5t-24 56.5q0 32 24 56t58 24t58.5 -24t24.5 -56zM454 72q0 -33 -24.5 -56.5t-58.5 -23.5q-33 0 -57.5 23.5t-24.5 56.5q0 32 24.5 56t57.5 24q34 0 58.5 -24t24.5 -56zM696 72q0 -33 -24.5 -56.5t-58.5 -23.5t-59 23.5
t-25 56.5q0 32 25 56t59 24t58.5 -24t24.5 -56z" />
    <glyph glyph-name="perthousand" unicode="&#x2030;" horiz-adv-x="1429" 
d="M232 321q-87 0 -143 58.5t-56 148.5q0 91 56 149.5t143 58.5q86 0 142 -58.5t56 -149.5q0 -88 -57 -147.5t-141 -59.5zM199 0l443 717h136l-442 -717h-137zM232 616q-18 0 -30.5 -10.5t-17.5 -27.5t-6.5 -28.5t-1.5 -21.5q0 -9 1.5 -19.5t6.5 -28t17.5 -29t30.5 -11.5
q26 0 41 28.5t15 59.5q0 32 -14 60t-42 28zM755 -15q-86 0 -142 59t-56 150q0 90 56 148.5t142 58.5t142 -58.5t56 -148.5t-56.5 -149.5t-141.5 -59.5zM1182 -15q-86 0 -141.5 58.5t-55.5 150.5q0 90 55.5 148.5t141.5 58.5t142.5 -58.5t56.5 -148.5t-56.5 -149.5
t-142.5 -59.5zM755 282q-18 0 -30.5 -11t-17.5 -28t-6.5 -28t-1.5 -21q0 -9 1.5 -20t6.5 -28.5t17.5 -29t30.5 -11.5q27 0 41.5 28t14.5 61q0 31 -14 59.5t-42 28.5zM1182 282q-18 0 -30.5 -11t-17.5 -28t-6.5 -28t-1.5 -21q0 -9 1.5 -20t6.5 -28.5t17.5 -29t30.5 -11.5
q27 0 42.5 28t15.5 61q0 31 -15 59.5t-43 28.5z" />
    <glyph glyph-name="guilsinglleft" unicode="&#x2039;" horiz-adv-x="421" 
d="M204 40l-157 234l158 236h164l-162 -236l163 -234h-166z" />
    <glyph glyph-name="guilsinglright" unicode="&#x203a;" horiz-adv-x="421" 
d="M42 40l164 234l-163 236h165l157 -236l-156 -234h-167z" />
    <glyph glyph-name="fraction" unicode="&#x2044;" horiz-adv-x="550" 
d="M-11 0l453 732h113l-452 -732h-114z" />
    <glyph glyph-name="Euro" unicode="&#x20ac;" 
d="M694 156q-2 -6 -10 -20t-31 -41.5t-52 -50.5t-77.5 -40.5t-102.5 -17.5q-72 0 -134.5 23.5t-114.5 82t-71 146.5h-82v114l72 2q0 20 1 32h-73v115h92q20 69 75 134q45 51 106.5 79.5t128.5 28.5q50 0 95.5 -16.5t73 -35.5t53 -46.5t31.5 -37l12 -18.5l-139 -74
q-3 7 -11.5 19t-24 29t-39.5 28.5t-51 11.5q-91 0 -141 -102h200v-115h-230q-1 -11 -1 -34h231v-114h-215q40 -112 156 -112q26 0 48 9.5t35.5 23t23 27.5t13.5 23t4 10z" />
    <glyph glyph-name="trademark" unicode="&#x2122;" horiz-adv-x="883" 
d="M801 764v-408h-108v127l-88 -101l-87 101v-127h-107v408l194 -221zM49 732h331v-100h-112v-276h-108v276h-111v100z" />
    <glyph glyph-name="notequal" unicode="&#x2260;" horiz-adv-x="584" 
d="M384 356q-6 -12 -15.5 -29.5l-17 -32t-14.5 -29.5h183v-136h-252l-49 -95h-157l49 95h-59v136h128l47 91h-175v136h245l48 95h157l-51 -95h69v-136h-136z" />
    <glyph glyph-name="lessequal" unicode="&#x2264;" horiz-adv-x="541" 
d="M46 484l437 197v-165l-243 -86l243 -80v-168l-437 187v115zM45 0v136h440v-136h-440z" />
    <glyph glyph-name="greaterequal" unicode="&#x2265;" horiz-adv-x="541" 
d="M484 484v-115l-437 -187v168l242 80l-242 86v165zM485 0h-440v136h440v-136z" />
    <glyph glyph-name="NULL" horiz-adv-x="0" 
 />
    <glyph glyph-name="CR" horiz-adv-x="356" 
 />
    </font>
</defs>
</svg>
