<svg xmlns="http://www.w3.org/2000/svg" width="156.5" height="48.8" viewBox="0 0 156.5 48.8">
  <g id="web_werks_logo" transform="translate(-2.4 -4.9)">
    <g id="Group_2" data-name="Group 2">
      <g id="Group_1" data-name="Group 1">
        <path id="Path_1" data-name="Path 1" d="M124.5,20.6a28.374,28.374,0,0,0,6.3-3.5,18.4,18.4,0,0,0-11.2-5.5,30.64,30.64,0,0,1,4.9,9" fill="#0074cb" fill-rule="evenodd"/>
        <path id="Path_2" data-name="Path 2" d="M108.8,20.2a34.667,34.667,0,0,1,4.8-8.5A18.993,18.993,0,0,0,103.4,17a25.506,25.506,0,0,0,5.4,3.2" fill="#0074cb" fill-rule="evenodd"/>
        <path id="Path_3" data-name="Path 3" d="M124.8,21.4a22.65,22.65,0,0,1,1.2,7.2h9.8a16.942,16.942,0,0,0-4.4-10.9,27.437,27.437,0,0,1-6.6,3.7" fill="#0074cb" fill-rule="evenodd"/>
        <path id="Path_4" data-name="Path 4" d="M117.2,22a19.3,19.3,0,0,0,6.2-1.1,33.492,33.492,0,0,0-5.3-9.5h-.9V22Z" fill="#0074cb" fill-rule="evenodd"/>
        <path id="Path_5" data-name="Path 5" d="M83.4,24.6a2.078,2.078,0,0,0,1.2-.5,3.562,3.562,0,0,0,1-1.5,5.222,5.222,0,0,0,.4-2.1,2.544,2.544,0,0,0-.5-1.6,1.612,1.612,0,0,0-1.3-.6,2.235,2.235,0,0,0-1.7.9,5.218,5.218,0,0,0-1,3.1,2.767,2.767,0,0,0,.5,1.6,2.062,2.062,0,0,0,1.4.7" fill="#0074cb" fill-rule="evenodd"/>
        <path id="Path_6" data-name="Path 6" d="M108.5,37.4a27.613,27.613,0,0,1-1.4-7.4H98.2a17.443,17.443,0,0,0,4.4,10.8,40.343,40.343,0,0,1,5.9-3.4" fill="#0074cb" fill-rule="evenodd"/>
        <path id="Path_7" data-name="Path 7" d="M124.5,37.9a38.754,38.754,0,0,1-4.9,9.1,20.137,20.137,0,0,0,11.3-5.5,32.077,32.077,0,0,0-6.4-3.6" fill="#0074cb" fill-rule="evenodd"/>
        <path id="Path_8" data-name="Path 8" d="M107.1,28.7a25.274,25.274,0,0,1,1.3-7.6,29.227,29.227,0,0,1-5.7-3.5,16.994,16.994,0,0,0-4.5,11h8.9Z" fill="#0074cb" fill-rule="evenodd"/>
        <path id="Path_9" data-name="Path 9" d="M108.8,38.3a32,32,0,0,0-5.6,3.2,19.13,19.13,0,0,0,10.2,5.4,42.551,42.551,0,0,1-4.6-8.6" fill="#0074cb" fill-rule="evenodd"/>
        <path id="Path_10" data-name="Path 10" d="M115.9,36.5a21.529,21.529,0,0,0-6,1.3,36.189,36.189,0,0,0,5,9.2c.3,0,.6.1,1,.1Z" fill="#0074cb" fill-rule="evenodd"/>
        <path id="Path_11" data-name="Path 11" d="M123.4,37.5a18.564,18.564,0,0,0-6.1-1V47.2h.9a43.88,43.88,0,0,0,5.2-9.7" fill="#0074cb" fill-rule="evenodd"/>
        <path id="Path_12" data-name="Path 12" d="M126,30a24.675,24.675,0,0,1-1.3,7,28.528,28.528,0,0,1,6.6,3.9A17.819,17.819,0,0,0,135.8,30H126Z" fill="#0074cb" fill-rule="evenodd"/>
        <path id="Path_13" data-name="Path 13" d="M124.8,30h-7.6v5.5a20.02,20.02,0,0,1,6.4,1.1,25.517,25.517,0,0,0,1.2-6.6" fill="#0074cb" fill-rule="evenodd"/>
        <path id="Path_14" data-name="Path 14" d="M109.6,21.6a22.054,22.054,0,0,0-1.2,7.1H116V23a20.419,20.419,0,0,1-6.4-1.4" fill="#0074cb" fill-rule="evenodd"/>
        <path id="Path_15" data-name="Path 15" d="M115.9,35.5V30h-7.5a29.362,29.362,0,0,0,1.2,7,20.65,20.65,0,0,1,6.3-1.5" fill="#0074cb" fill-rule="evenodd"/>
        <path id="Path_16" data-name="Path 16" d="M117.2,9.2v.9c11,.1,19.9,8.6,19.9,19.1s-8.9,19-19.9,19.1v.9c24.8-3.8,41.7-11.4,41.7-20.1,0-8.5-16.9-16.1-41.7-19.9" fill="#0074cb" fill-rule="evenodd"/>
        <path id="Path_17" data-name="Path 17" d="M115.9,49.5h0V48.3c-10.6-.6-19-8.9-19-19.1s8.4-18.5,19-19.1V9h0A239.89,239.89,0,0,0,80.6,6.6C37.4,6.6,2.4,16.8,2.4,29.3S37.4,52,80.7,52a238.826,238.826,0,0,0,35.2-2.5Zm-35-36.3h2.6l-.9,4.4a6.551,6.551,0,0,1,1.3-.8,2.745,2.745,0,0,1,1.3-.2,2.965,2.965,0,0,1,2.4,1,4.2,4.2,0,0,1,.9,2.9,6.9,6.9,0,0,1-.4,2.5A7.486,7.486,0,0,1,87,25a4.789,4.789,0,0,1-1.5,1.1,4.707,4.707,0,0,1-1.6.4,3.1,3.1,0,0,1-3-1.8l-.3,1.6H78.3Zm-25.5,0,.1,9.2L60,13.2h3l.3,9.1,4.3-9.1h2.6L63.9,26.3H61.2l-.3-9.6-4.8,9.6H53.3l-.5-13.1h2.6ZM14.3,29.4c0-8.2,12.8-15.1,29.6-16.4-13.6,2.4-23.3,8.8-23.3,16.4S30.4,43.5,44,45.9C27.1,44.6,14.3,37.7,14.3,29.4ZM51.6,43.7l-.3-9.6-4.8,9.6H43.7l-.5-13.1h2.6l.1,9.2,4.5-9.2h2.9l.3,9.1,4.3-9.1h2.6L54.2,43.7H51.6Zm16.3-4H61.5v.2a2.456,2.456,0,0,0,.5,1.5,1.76,1.76,0,0,0,1.3.6,2.129,2.129,0,0,0,2-1.3l2.3.4a4.626,4.626,0,0,1-1.8,2.1,4.3,4.3,0,0,1-2.5.7,4.143,4.143,0,0,1-3.1-1.2A4.378,4.378,0,0,1,59,39.5,6.062,6.062,0,0,1,60.1,36a4.866,4.866,0,0,1,4.2-2.1A3.763,3.763,0,0,1,67.1,35a4.04,4.04,0,0,1,1,3A7.181,7.181,0,0,1,67.9,39.7Zm1.7-21.1a4.866,4.866,0,0,1,4.2-2.1,3.763,3.763,0,0,1,2.8,1.1,4.04,4.04,0,0,1,1,3,8.807,8.807,0,0,1-.2,1.7H71v.2a2.456,2.456,0,0,0,.5,1.5,1.76,1.76,0,0,0,1.3.6,2.129,2.129,0,0,0,2-1.3l2.3.4a5.312,5.312,0,0,1-1.8,2.1,4.3,4.3,0,0,1-2.5.7,4.143,4.143,0,0,1-3.1-1.2,4.378,4.378,0,0,1-1.2-3.2A6.062,6.062,0,0,1,69.6,18.6Zm4,18.1A3.482,3.482,0,0,0,72.5,38a12.907,12.907,0,0,0-.8,2.7l-.6,3H68.5l2-9.5H73L72.6,36c.9-1.4,1.9-2.1,2.9-2.1a2.663,2.663,0,0,1,1.2.3l-1,2.1a1.7,1.7,0,0,0-.7-.1A2.654,2.654,0,0,0,73.6,36.7Zm8.3,7-1.3-4.4-1.7,1.5-.6,2.9H75.7l2.8-13.1H81l-1.4,6.8,3.3-3.2h3.3l-3.8,3.5,2,6.1H81.9Zm7.7-6.5a4.612,4.612,0,0,0,1.4.5,6.585,6.585,0,0,1,2.5,1.1,2.271,2.271,0,0,1,.9,1.8,2.99,2.99,0,0,1-1.1,2.3,4.554,4.554,0,0,1-3.2,1,5.809,5.809,0,0,1-3.2-.8A3.592,3.592,0,0,1,85.4,41l2.5-.4a2.421,2.421,0,0,0,.8,1.1A2.5,2.5,0,0,0,90,42a2.116,2.116,0,0,0,1.4-.4,1.012,1.012,0,0,0,.4-.7c0-.2-.1-.3-.2-.5a3.828,3.828,0,0,0-1.1-.5,11.081,11.081,0,0,1-2.9-1.2,2.271,2.271,0,0,1-.9-1.8,2.56,2.56,0,0,1,.8-1.9,6.044,6.044,0,0,1,6.3-.4A3.218,3.218,0,0,1,95,36.4l-2.4.4A1.555,1.555,0,0,0,92,36a2.9,2.9,0,0,0-1.4-.3,2.133,2.133,0,0,0-1.2.3c-.2.2-.4.4-.4.6A1.7,1.7,0,0,0,89.6,37.2Z" fill="#0074cb" fill-rule="evenodd"/>
        <path id="Path_18" data-name="Path 18" d="M117.2,23v5.6h7.6a23.015,23.015,0,0,0-1.1-6.8,18.245,18.245,0,0,1-6.5,1.2" fill="#0074cb" fill-rule="evenodd"/>
        <path id="Path_19" data-name="Path 19" d="M64,35.8a1.974,1.974,0,0,0-1.4.6,3.8,3.8,0,0,0-.9,1.8h4v-.3a2.544,2.544,0,0,0-.5-1.6,1.364,1.364,0,0,0-1.2-.5" fill="#0074cb" fill-rule="evenodd"/>
        <path id="Path_20" data-name="Path 20" d="M115,11.5a35.28,35.28,0,0,0-5.1,9.2,18.486,18.486,0,0,0,6,1.3V11.4c-.3,0-.6.1-.9.1" fill="#0074cb" fill-rule="evenodd"/>
        <path id="Path_21" data-name="Path 21" d="M75.3,20.5a2.544,2.544,0,0,0-.5-1.6,1.728,1.728,0,0,0-1.3-.5,1.974,1.974,0,0,0-1.4.6,3.8,3.8,0,0,0-.9,1.8h4a.367.367,0,0,0,.1-.3" fill="#0074cb" fill-rule="evenodd"/>
        <path id="Path_22" data-name="Path 22" d="M115.9,4.9h1.3V9.2l-1.3-.1Z" fill="#0074cb" fill-rule="evenodd"/>
        <path id="Path_23" data-name="Path 23" d="M115.9,53.7h1.3V49.4l-1.3.1Z" fill="#0074cb" fill-rule="evenodd"/>
        <path id="Path_24" data-name="Path 24" d="M156.2,13.6a3.3,3.3,0,1,1-3.3-3.3,3.329,3.329,0,0,1,3.3,3.3m.6,0a3.8,3.8,0,1,0-3.8,3.8A3.736,3.736,0,0,0,156.8,13.6Z" fill="#0074cb"/>
        <path id="Path_25" data-name="Path 25" d="M151.9,15.2V12.1h1.3c.3,0,.6,0,.7.1s.3.2.4.3a.749.749,0,0,1,.1.5,1.421,1.421,0,0,1-.2.6c-.1.2-.3.2-.6.3l.3.3c.1.1.2.3.4.5l.4.6H154l-.5-.7a.914.914,0,0,1-.3-.5c-.1-.1-.1-.1-.2-.1h-.4v1.3h-.7Zm.7-1.8h1.1c.1,0,.1-.1.2-.1,0-.1.1-.1.1-.2a.367.367,0,0,0-.1-.3c-.1-.1-.1-.1-.2-.1h-1v.7Z" fill="#0074cb"/>
      </g>
    </g>
  </g>
</svg>
